<svg width="1280" height="800" viewBox="0 0 1280 800" fill="none" xmlns="http://www.w3.org/2000/svg">
<g clip-path="url(#clip0)">
<path d="M1265.23 205.624C1302.46 200.995 1328.89 167.062 1324.26 129.833C1319.63 92.6039 1285.7 66.1765 1248.47 70.8058C1211.24 75.435 1184.81 109.368 1189.44 146.597C1194.07 183.826 1228 210.253 1265.23 205.624Z" fill="#2F2544"/>
<path d="M349.029 343.355C370.982 339.765 385.868 319.058 382.278 297.104C378.688 275.151 357.981 260.265 336.027 263.856C314.074 267.446 299.188 288.153 302.778 310.106C306.369 332.059 327.076 346.945 349.029 343.355Z" fill="#03CADA"/>
<path d="M1000.45 556.203L1076.74 481.451L1116.5 549.205L1000.45 556.203ZM1076.05 487.083L1009.32 552.277L1110.7 546.133L1076.05 487.083Z" fill="#03CADA"/>
<path d="M335.369 136.567L305.561 166.374L328.007 188.821L357.815 159.013L335.369 136.567Z" fill="#2F2544"/>
<path d="M101.276 774.583L12.3364 863.523L53.8497 905.036L142.79 816.096L101.276 774.583Z" fill="#2F2544"/>
<path d="M850.315 627.655C878.367 622.283 896.752 595.187 891.38 567.136C886.008 539.085 858.913 520.7 830.861 526.072C802.81 531.444 784.425 558.539 789.797 586.59C795.169 614.642 822.264 633.027 850.315 627.655Z" fill="#03CADA"/>
<path d="M798.72 634.539L776.533 612.352L805.035 583.851L827.221 606.037L798.72 634.539ZM782.507 612.352L798.72 628.565L821.077 606.208L804.864 589.995L782.507 612.352Z" fill="#2F2544"/>
<path d="M810.637 143.907L777.016 110.285L820.024 67.2771L853.645 100.899L810.637 143.907ZM786.232 110.456L810.637 134.861L844.6 100.899L820.195 76.4931L786.232 110.456Z" fill="#03CADA"/>
<path d="M717.653 52.9066C717.653 47.9572 713.557 43.8612 708.608 43.8612C703.659 43.8612 699.563 47.9572 699.563 52.9066C699.563 57.8559 703.659 61.9519 708.608 61.9519C713.557 61.9519 717.653 57.8559 717.653 52.9066Z" fill="#7B6490"/>
<path d="M176.314 459.958C181.004 448.842 175.796 436.029 164.681 431.338C153.566 426.647 140.752 431.855 136.061 442.971C131.371 454.086 136.579 466.9 147.694 471.59C158.809 476.281 171.623 471.073 176.314 459.958Z" fill="#03CADA"/>
<path d="M148.309 373.077C148.309 371.371 146.944 370.005 145.237 370.005C143.531 370.005 142.165 371.371 142.165 373.077C142.165 374.784 143.531 376.149 145.237 376.149C146.944 376.149 148.309 374.784 148.309 373.077Z" fill="#2F2544"/>
<path d="M177.152 373.077C177.152 371.371 175.787 370.005 174.08 370.005C172.373 370.005 171.008 371.371 171.008 373.077C171.008 374.784 172.373 376.149 174.08 376.149C175.787 376.149 177.152 374.784 177.152 373.077Z" fill="#2F2544"/>
<path d="M205.995 373.077C205.995 371.371 204.629 370.005 202.923 370.005C201.216 370.005 199.851 371.371 199.851 373.077C199.851 374.784 201.216 376.149 202.923 376.149C204.629 376.149 205.995 374.784 205.995 373.077Z" fill="#2F2544"/>
<path d="M162.304 387.243C162.304 385.536 160.939 384.171 159.232 384.171C157.525 384.171 156.16 385.536 156.16 387.243C156.16 388.949 157.525 390.315 159.232 390.315C160.939 390.144 162.304 388.779 162.304 387.243Z" fill="#2F2544"/>
<path d="M191.147 387.243C191.147 385.536 189.781 384.171 188.075 384.171C186.368 384.171 185.003 385.536 185.003 387.243C185.003 388.949 186.368 390.315 188.075 390.315C189.781 390.315 191.147 388.779 191.147 387.243Z" fill="#2F2544"/>
<path d="M148.309 402.432C148.309 400.725 146.944 399.36 145.237 399.36C143.531 399.36 142.165 400.725 142.165 402.432C142.165 404.139 143.531 405.504 145.237 405.504C146.944 405.504 148.309 404.139 148.309 402.432Z" fill="#2F2544"/>
<path d="M177.152 402.432C177.152 400.725 175.787 399.36 174.08 399.36C172.373 399.36 171.008 400.725 171.008 402.432C171.008 404.139 172.373 405.504 174.08 405.504C175.787 405.504 177.152 404.139 177.152 402.432Z" fill="#2F2544"/>
<path d="M205.995 402.432C205.995 400.725 204.629 399.36 202.923 399.36C201.216 399.36 199.851 400.725 199.851 402.432C199.851 404.139 201.216 405.504 202.923 405.504C204.629 405.504 205.995 404.139 205.995 402.432Z" fill="#2F2544"/>
<path d="M162.304 416.597C162.304 414.891 160.939 413.525 159.232 413.525C157.525 413.525 156.16 414.891 156.16 416.597C156.16 418.304 157.525 419.669 159.232 419.669C160.939 419.499 162.304 418.133 162.304 416.597Z" fill="#2F2544"/>
<path d="M191.147 416.597C191.147 414.891 189.781 413.525 188.075 413.525C186.368 413.525 185.003 414.891 185.003 416.597C185.003 418.304 186.368 419.669 188.075 419.669C189.781 419.669 191.147 418.133 191.147 416.597Z" fill="#2F2544"/>
<path d="M148.309 431.616C148.309 429.909 146.944 428.544 145.237 428.544C143.531 428.544 142.165 429.909 142.165 431.616C142.165 433.323 143.531 434.688 145.237 434.688C146.944 434.688 148.309 433.323 148.309 431.616Z" fill="#2F2544"/>
<path d="M177.152 431.616C177.152 429.909 175.787 428.544 174.08 428.544C172.373 428.544 171.008 429.909 171.008 431.616C171.008 433.323 172.373 434.688 174.08 434.688C175.787 434.688 177.152 433.323 177.152 431.616Z" fill="#2F2544"/>
<path d="M205.995 431.616C205.995 429.909 204.629 428.544 202.923 428.544C201.216 428.544 199.851 429.909 199.851 431.616C199.851 433.323 201.216 434.688 202.923 434.688C204.629 434.688 205.995 433.323 205.995 431.616Z" fill="#2F2544"/>
<path d="M162.304 445.611C162.304 443.904 160.939 442.539 159.232 442.539C157.525 442.539 156.16 443.904 156.16 445.611C156.16 447.317 157.525 448.683 159.232 448.683C160.939 448.683 162.304 447.317 162.304 445.611Z" fill="#2F2544"/>
<path d="M191.147 445.611C191.147 443.904 189.781 442.539 188.075 442.539C186.368 442.539 185.003 443.904 185.003 445.611C185.003 447.317 186.368 448.683 188.075 448.683C189.781 448.683 191.147 447.317 191.147 445.611Z" fill="#2F2544"/>
<path d="M524.117 751.616L492.544 720.043C485.035 715.435 476.843 711.851 468.651 709.461L534.699 775.509C532.48 767.317 528.896 759.125 524.117 751.616Z" fill="#2F2544"/>
<path d="M537.771 790.528L453.803 706.56C449.195 706.048 444.416 705.707 439.808 705.877L538.453 804.523C538.624 799.744 538.283 795.136 537.771 790.528Z" fill="#2F2544"/>
<path d="M537.6 815.445L428.715 706.56C424.96 707.072 421.205 707.755 417.621 708.779L535.381 826.539C536.405 822.955 537.088 819.2 537.6 815.445Z" fill="#2F2544"/>
<path d="M532.48 835.755L408.576 711.68C405.333 712.875 402.261 714.24 399.189 715.776L528.555 845.141C530.091 841.899 531.456 838.827 532.48 835.755Z" fill="#2F2544"/>
<path d="M524.288 852.651L391.509 719.872C388.779 721.579 386.219 723.285 383.659 725.333L518.827 860.501C520.875 858.112 522.581 855.381 524.288 852.651Z" fill="#2F2544"/>
<path d="M510.293 870.571C511.488 869.376 512.512 868.352 513.536 867.157L377.173 730.795C375.979 731.819 374.955 733.013 373.76 734.037C372.565 735.232 371.541 736.256 370.517 737.451L506.88 873.813C508.075 872.789 509.099 871.595 510.293 870.571Z" fill="#2F2544"/>
<path d="M500.395 879.104L365.227 743.936C363.349 746.496 361.472 749.227 359.765 751.787L492.544 884.565C495.104 882.859 497.835 881.152 500.395 879.104Z" fill="#2F2544"/>
<path d="M484.693 888.832L355.499 759.467C353.963 762.539 352.597 765.611 351.403 768.853L475.307 892.757C478.549 891.733 481.792 890.368 484.693 888.832Z" fill="#2F2544"/>
<path d="M466.432 895.659L348.672 777.899C347.648 781.653 346.965 785.237 346.453 788.992L455.339 897.877C459.093 897.365 462.677 896.683 466.432 895.659Z" fill="#2F2544"/>
<path d="M1083.73 42.8372L1030.83 95.7439C1033.56 96.7679 1036.12 97.6212 1038.85 98.3039L1143.98 -6.82685C1143.3 -9.55752 1142.44 -12.2881 1141.42 -14.8481L1083.73 42.8372Z" fill="#03CADA"/>
<path d="M1036.8 -67.7549L977.92 -8.87489C976.725 -4.43756 975.701 -0.000221252 975.189 4.43711L1050.11 -70.4856C1045.67 -69.9736 1041.24 -69.1202 1036.8 -67.7549Z" fill="#03CADA"/>
<path d="M1146.03 3.07178L1048.92 100.181C1052.16 100.693 1055.4 100.864 1058.82 101.035L1146.88 12.9705C1146.71 9.72778 1146.37 6.31445 1146.03 3.07178Z" fill="#03CADA"/>
<path d="M1134.08 -30.0376L1015.64 88.4051C1017.86 89.7704 1020.07 90.9651 1022.46 92.1597L1137.83 -23.2109C1136.81 -25.6002 1135.45 -27.8189 1134.08 -30.0376Z" fill="#03CADA"/>
<path d="M1062.74 -71.1682L974.507 16.8958C974.507 20.1385 974.848 23.3812 975.36 26.7945L1072.47 -70.3149C1069.23 -70.8269 1065.98 -70.9975 1062.74 -71.1682Z" fill="#03CADA"/>
<path d="M1098.75 -62.2937L983.381 53.077C984.576 55.4663 985.771 57.685 987.136 59.9037L1105.58 -58.539C1103.36 -59.9043 1101.14 -61.099 1098.75 -62.2937Z" fill="#03CADA"/>
<path d="M1146.2 25.4291L1071.27 100.352C1075.71 99.8398 1080.15 98.9864 1084.59 97.6211L1143.47 38.7411C1144.66 34.4744 1145.51 30.0371 1146.2 25.4291Z" fill="#03CADA"/>
<path d="M1082.37 -68.4375L977.237 36.6932C977.92 39.4238 978.773 42.1545 979.797 44.7145L1090.56 -65.8775C1087.83 -66.9015 1085.1 -67.5841 1082.37 -68.4375Z" fill="#03CADA"/>
<path d="M1124.52 -42.8374L1002.84 78.8479C1004.71 80.5546 1006.59 82.0906 1008.64 83.6266L1129.3 -37.0347C1127.77 -39.0827 1126.23 -40.9601 1124.52 -42.8374Z" fill="#03CADA"/>
<path d="M1112.75 -53.5896L992.085 67.0717C993.621 69.1197 995.157 70.9971 996.864 72.8744L1118.55 -48.8109C1116.67 -50.5176 1114.62 -52.2242 1112.75 -53.5896Z" fill="#03CADA"/>
<path d="M1133.91 60.0745L1105.75 88.2345C1111.38 84.8211 1116.67 80.7251 1121.45 75.7758C1126.4 70.9972 1130.5 65.7065 1133.91 60.0745Z" fill="#03CADA"/>
<path d="M561.493 470.699L461.483 570.709C463.872 571.563 466.261 572.416 468.821 572.928L563.712 478.037C563.2 475.477 562.347 473.088 561.493 470.699Z" fill="#03CADA"/>
<path d="M433.493 442.709C429.056 447.147 425.301 451.925 422.229 456.875L447.659 431.445C442.539 434.517 437.76 438.272 433.493 442.709Z" fill="#03CADA"/>
<path d="M466.944 422.912L413.696 476.16C412.501 480.085 411.819 484.181 411.307 488.107L479.061 420.352C474.965 420.864 470.869 421.717 466.944 422.912Z" fill="#03CADA"/>
<path d="M565.589 486.912L477.867 574.635C480.768 574.976 483.84 575.317 486.741 575.317L566.272 495.787C566.101 492.885 565.931 489.984 565.589 486.912Z" fill="#03CADA"/>
<path d="M554.837 457.045L447.829 564.053C449.877 565.248 451.925 566.443 453.973 567.467L558.251 463.189C557.227 461.141 556.032 459.093 554.837 457.045Z" fill="#03CADA"/>
<path d="M490.325 419.84L410.795 499.371C410.795 502.272 411.136 505.344 411.477 508.245L499.2 420.523C496.128 420.181 493.227 420.011 490.325 419.84Z" fill="#03CADA"/>
<path d="M522.923 427.861L418.645 532.139C419.669 534.187 420.864 536.235 422.059 538.283L529.067 431.275C527.019 430.08 524.971 428.885 522.923 427.861Z" fill="#03CADA"/>
<path d="M565.76 507.221L498.005 574.976C502.101 574.464 506.027 573.611 509.952 572.587L563.2 519.339C564.395 515.243 565.248 511.147 565.76 507.221Z" fill="#03CADA"/>
<path d="M508.075 422.4L413.184 517.291C413.867 519.68 414.549 522.24 415.403 524.629L515.413 424.619C513.024 423.765 510.635 423.083 508.075 422.4Z" fill="#03CADA"/>
<path d="M546.133 445.44L436.224 555.349C437.931 556.885 439.637 558.251 441.515 559.616L550.571 450.56C549.035 448.853 547.669 447.147 546.133 445.44Z" fill="#03CADA"/>
<path d="M535.552 435.712L426.496 544.768C427.861 546.475 429.227 548.352 430.763 550.059L540.672 440.149C538.965 438.443 537.259 437.077 535.552 435.712Z" fill="#03CADA"/>
<path d="M554.667 538.453L529.237 563.883C534.357 560.811 539.136 557.056 543.403 552.619C547.84 548.352 551.595 543.573 554.667 538.453Z" fill="#03CADA"/>
<path d="M146.432 73.2158C153.6 73.2158 160.597 72.3625 167.424 70.8265H125.44C132.267 72.1918 139.264 73.2158 146.432 73.2158Z" fill="#03CADA"/>
<path d="M102.571 61.7811H190.293C194.389 59.3918 198.485 56.8318 202.24 53.9305H90.624C94.3786 56.8318 98.304 59.5625 102.571 61.7811Z" fill="#03CADA"/>
<path d="M80.896 45.0559H211.968C214.357 42.4959 216.576 39.9359 218.624 37.2052H74.0693C76.288 39.9359 78.5067 42.4959 80.896 45.0559Z" fill="#03CADA"/>
<path d="M60.5866 11.6053H232.277C233.131 9.04531 233.984 6.31464 234.496 3.75464H58.368C58.88 6.31464 59.7333 9.04531 60.5866 11.6053Z" fill="#03CADA"/>
<path d="M68.2667 28.3306H224.768C226.304 25.7706 227.669 23.2106 228.864 20.48H64.1707C65.3653 23.04 66.7307 25.7706 68.2667 28.3306Z" fill="#03CADA"/>
<path d="M880.299 786.091C880.299 783.872 878.592 782.165 876.373 782.165C874.155 782.165 872.448 783.872 872.448 786.091C872.448 788.309 874.155 790.016 876.373 790.016C878.592 790.016 880.299 788.309 880.299 786.091Z" fill="#7B6490"/>
<path d="M918.187 786.091C918.187 783.872 916.48 782.165 914.261 782.165C912.043 782.165 910.336 783.872 910.336 786.091C910.336 788.309 912.043 790.016 914.261 790.016C916.48 790.016 918.187 788.309 918.187 786.091Z" fill="#7B6490"/>
<path d="M956.245 786.091C956.245 783.872 954.539 782.165 952.32 782.165C950.101 782.165 948.395 783.872 948.395 786.091C948.395 788.309 950.101 790.016 952.32 790.016C954.368 790.016 956.245 788.309 956.245 786.091Z" fill="#7B6490"/>
<path d="M994.133 786.091C994.133 783.872 992.427 782.165 990.208 782.165C987.989 782.165 986.283 783.872 986.283 786.091C986.283 788.309 987.989 790.016 990.208 790.016C992.427 790.016 994.133 788.309 994.133 786.091Z" fill="#7B6490"/>
<path d="M1032.19 786.091C1032.19 783.872 1030.49 782.165 1028.27 782.165C1026.05 782.165 1024.34 783.872 1024.34 786.091C1024.34 788.309 1026.05 790.016 1028.27 790.016C1030.31 790.016 1032.19 788.309 1032.19 786.091Z" fill="#7B6490"/>
<path d="M1132.71 677.205L1094.66 715.264C1089.02 724.309 1084.76 734.037 1081.86 744.107L1161.39 664.576C1151.49 667.307 1141.76 671.573 1132.71 677.205Z" fill="#03CADA"/>
<path d="M1179.31 660.821L1078.27 761.856C1077.59 767.488 1077.25 773.12 1077.42 778.752L1196.2 659.968C1190.57 659.968 1184.94 660.139 1179.31 660.821Z" fill="#03CADA"/>
<path d="M1209.51 660.992L1078.61 791.893C1079.3 796.331 1080.15 800.939 1081.34 805.376L1223 663.723C1218.56 662.528 1213.95 661.675 1209.51 660.992Z" fill="#03CADA"/>
<path d="M1233.75 667.136L1084.59 816.299C1085.95 820.053 1087.66 823.808 1089.37 827.563L1245.01 671.915C1241.26 670.208 1237.5 668.501 1233.75 667.136Z" fill="#03CADA"/>
<path d="M1254.23 677.035L1094.49 836.779C1096.53 840.021 1098.58 843.264 1100.97 846.336L1263.62 683.691C1260.71 681.301 1257.47 679.083 1254.23 677.035Z" fill="#03CADA"/>
<path d="M1275.73 693.931C1274.37 692.565 1273 691.2 1271.64 690.005L1107.63 854.016C1108.82 855.381 1110.19 856.747 1111.55 858.112C1112.92 859.477 1114.28 860.843 1115.65 862.037L1279.66 698.027C1278.29 696.661 1277.1 695.296 1275.73 693.931Z" fill="#03CADA"/>
<path d="M1286.14 705.877L1123.33 868.693C1126.4 871.083 1129.64 873.301 1132.89 875.179L1292.63 715.435C1290.58 712.192 1288.36 708.949 1286.14 705.877Z" fill="#03CADA"/>
<path d="M1297.75 724.651L1142.1 880.299C1145.86 882.176 1149.44 883.712 1153.37 885.077L1302.53 735.915C1301.16 732.16 1299.46 728.405 1297.75 724.651Z" fill="#03CADA"/>
<path d="M1305.94 746.837L1164.29 888.491C1168.73 889.685 1173.16 890.539 1177.77 891.221L1308.67 760.32C1307.99 755.712 1307.14 751.104 1305.94 746.837Z" fill="#03CADA"/>
<path d="M1309.7 773.461L1190.91 892.245C1196.54 892.416 1202.18 892.075 1207.81 891.392L1308.84 790.357C1309.53 784.725 1309.7 779.093 1309.7 773.461Z" fill="#03CADA"/>
<path d="M920.064 269.483C919.381 269.483 918.869 269.312 918.357 268.8C917.333 267.776 917.333 266.24 918.357 265.387C922.112 261.632 926.208 262.144 929.621 262.485C933.035 262.827 934.912 262.997 936.96 260.949C938.837 259.072 938.837 257.024 938.496 253.611C938.155 250.197 937.643 246.101 941.397 242.347C945.152 238.592 949.248 239.104 952.661 239.445C956.075 239.787 957.952 239.957 960 237.909C961.877 236.032 961.877 233.984 961.536 230.571C961.195 227.157 960.683 223.061 964.437 219.307C968.192 215.552 972.288 216.064 975.701 216.405C979.115 216.747 980.992 216.917 983.04 214.869C984.917 212.992 984.917 210.944 984.576 207.531C984.235 204.117 983.723 200.021 987.477 196.267C991.232 192.512 995.328 193.024 998.741 193.365C1002.15 193.707 1004.03 193.877 1006.08 191.829C1007.96 189.952 1007.96 187.904 1007.62 184.491C1007.27 181.077 1006.76 176.981 1010.52 173.227C1014.27 169.472 1018.37 169.984 1021.78 170.325C1025.19 170.667 1027.07 170.837 1029.12 168.789C1030.14 167.765 1031.68 167.765 1032.53 168.789C1033.56 169.813 1033.56 171.349 1032.53 172.203C1028.78 175.957 1024.68 175.445 1021.27 175.104C1017.86 174.763 1015.98 174.592 1013.93 176.64C1012.05 178.517 1012.05 180.565 1012.39 183.979C1012.74 187.392 1013.25 191.488 1009.49 195.243C1005.74 198.997 1001.64 198.485 998.229 198.144C994.816 197.803 992.939 197.632 990.891 199.68C989.013 201.557 989.013 203.605 989.355 207.019C989.696 210.432 990.208 214.528 986.453 218.283C982.699 222.037 978.603 221.525 975.189 221.184C971.776 220.843 969.899 220.672 967.851 222.72C965.973 224.597 965.973 226.645 966.315 230.059C966.656 233.472 967.168 237.568 963.413 241.323C959.659 245.077 955.563 244.565 952.149 244.224C948.736 243.883 946.859 243.712 944.811 245.76C942.933 247.637 942.933 249.685 943.275 253.099C943.616 256.512 944.128 260.608 940.373 264.363C936.619 268.117 932.523 267.605 929.109 267.264C925.696 266.923 923.819 266.752 921.771 268.8C921.259 269.312 920.576 269.483 920.064 269.483Z" fill="#03CADA"/>
<path d="M936.96 286.379C936.277 286.379 935.765 286.208 935.253 285.696C934.229 284.672 934.229 283.136 935.253 282.283C939.008 278.528 943.104 279.04 946.517 279.381C949.931 279.723 951.808 279.893 953.856 277.845C955.733 275.968 955.733 273.92 955.392 270.507C955.051 267.093 954.539 262.997 958.293 259.243C962.048 255.488 966.144 256 969.557 256.341C972.971 256.683 974.848 256.853 976.896 254.805C978.773 252.928 978.773 250.88 978.432 247.467C978.091 244.053 977.579 239.957 981.333 236.203C985.088 232.448 989.184 232.96 992.597 233.301C996.011 233.643 997.888 233.813 999.936 231.765C1001.81 229.888 1001.81 227.84 1001.47 224.427C1001.13 221.013 1000.62 216.917 1004.37 213.163C1008.13 209.408 1012.22 209.92 1015.64 210.261C1019.05 210.603 1020.93 210.773 1022.98 208.725C1024.85 206.848 1024.85 204.8 1024.51 201.387C1024.17 197.973 1023.66 193.877 1027.41 190.123C1031.17 186.368 1035.26 186.88 1038.68 187.221C1042.09 187.563 1043.97 187.733 1046.02 185.685C1047.04 184.661 1048.58 184.661 1049.43 185.685C1050.45 186.709 1050.45 188.245 1049.43 189.099C1045.67 192.853 1041.58 192.341 1038.17 192C1034.75 191.659 1032.87 191.488 1030.83 193.536C1028.95 195.413 1028.95 197.461 1029.29 200.875C1029.63 204.288 1030.14 208.384 1026.39 212.139C1022.63 215.893 1018.54 215.381 1015.13 215.04C1011.71 214.699 1009.83 214.528 1007.79 216.576C1005.91 218.453 1005.91 220.501 1006.25 223.915C1006.59 227.328 1007.1 231.424 1003.35 235.179C999.595 238.933 995.499 238.421 992.085 238.08C988.672 237.739 986.795 237.568 984.747 239.616C982.869 241.493 982.869 243.541 983.211 246.955C983.552 250.368 984.064 254.464 980.309 258.219C976.555 261.973 972.459 261.461 969.045 261.12C965.632 260.779 963.755 260.608 961.707 262.656C959.829 264.533 959.829 266.581 960.171 269.995C960.512 273.408 961.024 277.504 957.269 281.259C953.515 285.013 949.419 284.501 946.005 284.16C942.592 283.819 940.715 283.648 938.667 285.696C938.155 286.208 937.472 286.379 936.96 286.379Z" fill="#03CADA"/>
<path d="M953.856 303.275C953.173 303.275 952.661 303.104 952.149 302.592C951.125 301.568 951.125 300.032 952.149 299.179C955.904 295.424 960 295.936 963.413 296.277C966.827 296.619 968.704 296.789 970.752 294.741C972.629 292.864 972.629 290.816 972.288 287.403C971.947 283.989 971.435 279.893 975.189 276.139C978.944 272.384 983.04 272.896 986.453 273.237C989.867 273.579 991.744 273.749 993.792 271.701C995.669 269.824 995.669 267.776 995.328 264.363C994.987 260.949 994.475 256.853 998.229 253.099C1001.98 249.344 1006.08 249.856 1009.49 250.197C1012.91 250.539 1014.78 250.709 1016.83 248.661C1018.71 246.784 1018.71 244.736 1018.37 241.323C1018.03 237.909 1017.51 233.813 1021.27 230.059C1025.02 226.304 1029.12 226.816 1032.53 227.157C1035.95 227.499 1037.82 227.669 1039.87 225.621C1041.75 223.744 1041.75 221.696 1041.41 218.283C1041.07 214.869 1040.55 210.773 1044.31 207.019C1048.06 203.264 1052.16 203.776 1055.57 204.117C1058.99 204.459 1060.86 204.629 1062.91 202.581C1063.94 201.557 1065.47 201.557 1066.33 202.581C1067.35 203.605 1067.35 205.141 1066.33 205.995C1062.57 209.749 1058.47 209.237 1055.06 208.896C1051.65 208.555 1049.77 208.384 1047.72 210.432C1045.85 212.309 1045.85 214.357 1046.19 217.771C1046.53 221.184 1047.04 225.28 1043.29 229.035C1039.53 232.789 1035.43 232.277 1032.02 231.936C1028.61 231.595 1026.73 231.424 1024.68 233.472C1022.81 235.349 1022.81 237.397 1023.15 240.811C1023.49 244.224 1024 248.32 1020.25 252.075C1016.49 255.829 1012.39 255.317 1008.98 254.976C1005.57 254.635 1003.69 254.464 1001.64 256.512C999.765 258.389 999.765 260.437 1000.11 263.851C1000.45 267.264 1000.96 271.36 997.205 275.115C993.451 278.869 989.355 278.357 985.941 278.016C982.528 277.675 980.651 277.504 978.603 279.552C976.725 281.429 976.725 283.477 977.067 286.891C977.408 290.304 977.92 294.4 974.165 298.155C970.411 301.909 966.315 301.397 962.901 301.056C959.488 300.715 957.611 300.544 955.563 302.592C955.051 303.104 954.368 303.275 953.856 303.275Z" fill="#03CADA"/>
<path d="M547.811 124.621C520.845 124.621 499 102.776 499 75.8106C499 48.8452 520.845 26.9999 547.811 26.9999C574.776 26.9999 596.621 48.8452 596.621 75.8106C596.621 102.776 574.776 124.621 547.811 124.621ZM547.811 31.4372C523.235 31.4372 503.267 51.4052 503.267 75.9812C503.267 100.557 523.235 120.355 547.811 120.355C572.387 120.355 592.355 100.387 592.355 75.9812C592.355 51.5759 572.387 31.4372 547.811 31.4372Z" fill="#03CADA"/>
<path d="M340.651 642.731C328.875 642.731 319.488 633.173 319.488 621.568C319.488 609.792 329.045 600.405 340.651 600.405C352.427 600.405 361.813 609.963 361.813 621.568C361.813 633.173 352.256 642.731 340.651 642.731ZM340.651 604.331C331.093 604.331 323.413 612.011 323.413 621.568C323.413 631.125 331.093 638.805 340.651 638.805C350.208 638.805 357.888 631.125 357.888 621.568C357.717 612.011 350.037 604.331 340.651 604.331Z" fill="#7B6490"/>
<path d="M722.603 483.328C695.808 483.328 673.963 461.483 673.963 434.688C673.963 407.893 695.808 386.048 722.603 386.048C749.397 386.048 771.243 407.893 771.243 434.688C771.413 461.483 749.568 483.328 722.603 483.328ZM722.603 395.093C700.757 395.093 683.179 412.843 683.179 434.517C683.179 456.363 700.928 473.941 722.603 473.941C744.448 473.941 762.027 456.192 762.027 434.517C762.197 412.843 744.448 395.093 722.603 395.093Z" fill="#7B6490"/>
<path d="M722.603 236.032C709.461 236.032 698.88 225.451 698.88 212.309C698.88 199.168 709.461 188.587 722.603 188.587C735.744 188.587 746.325 199.168 746.325 212.309C746.325 225.28 735.744 236.032 722.603 236.032ZM722.603 190.635C710.656 190.635 700.928 200.363 700.928 212.309C700.928 224.256 710.656 233.984 722.603 233.984C734.549 233.984 744.277 224.256 744.277 212.309C744.277 200.363 734.549 190.635 722.603 190.635Z" fill="#2F2544"/>
<path d="M973.141 518.315C973.141 514.56 970.069 511.488 966.315 511.488C962.56 511.488 959.488 514.56 959.488 518.315C959.488 522.069 962.56 525.141 966.315 525.141C970.069 525.141 973.141 522.069 973.141 518.315Z" fill="white"/>
<path d="M896.853 734.891L881.152 678.4L933.035 698.368L896.853 734.891ZM888.491 686.421L899.243 725.504L924.16 700.245L888.491 686.421Z" fill="#2F2544"/>
<path d="M376.32 150.869C376.32 148.651 374.443 146.773 372.224 146.773C370.005 146.773 368.128 148.651 368.128 150.869C368.128 153.088 370.005 154.965 372.224 154.965C374.443 155.136 376.32 153.259 376.32 150.869Z" fill="white"/>
<path d="M393.045 224.768C399.266 224.768 404.309 219.725 404.309 213.504C404.309 207.283 399.266 202.24 393.045 202.24C386.824 202.24 381.781 207.283 381.781 213.504C381.781 219.725 386.824 224.768 393.045 224.768Z" fill="#2F2544"/>
<path d="M657.891 124.963C668.259 124.963 676.664 116.558 676.664 106.189C676.664 95.821 668.259 87.4159 657.891 87.4159C647.523 87.4159 639.117 95.821 639.117 106.189C639.117 116.558 647.523 124.963 657.891 124.963Z" fill="#03CADA"/>
<path d="M599.851 360.364C603.819 350.785 599.27 339.803 589.691 335.835C580.111 331.867 569.129 336.416 565.161 345.995C561.193 355.574 565.742 366.556 575.322 370.524C584.901 374.492 595.883 369.943 599.851 360.364Z" fill="#03CADA"/>
<path d="M-3.92542 101.888C-26.1121 101.888 -44.2028 83.797 -44.2028 61.6104C-44.2028 39.4237 -26.1121 21.3331 -3.92542 21.3331C18.2612 21.3331 36.3519 39.4237 36.3519 61.6104C36.3519 83.797 18.2612 101.888 -3.92542 101.888ZM-3.92542 26.7944C-23.2108 26.7944 -38.7415 42.4957 -38.7415 61.6104C-38.7415 80.8957 -23.0401 96.4264 -3.92542 96.4264C15.3599 96.4264 30.8905 80.725 30.8905 61.6104C30.8905 42.325 15.3599 26.7944 -3.92542 26.7944Z" fill="#03CADA"/>
<path d="M626.347 864.085L607.744 794.965L681.301 806.059L626.347 864.085ZM614.912 801.451L628.907 853.675L670.379 809.813L614.912 801.451Z" fill="#2F2544"/>
<path d="M1027.24 602.453L983.552 646.144L1012.39 674.987L1056.77 629.077L1027.24 602.453Z" fill="#2F2544"/>
<path d="M108.203 544.427L67.072 585.728L94.208 612.864L136.192 569.515L108.203 544.427Z" fill="#03CADA"/>
<path d="M79.872 617.643L48.2986 586.069L93.696 540.672L125.952 569.856L79.872 617.643ZM56.832 586.069L79.872 609.109L117.589 570.197L93.8666 549.035L56.832 586.069Z" fill="#2F2544"/>
<path d="M220.843 588.8L250.88 558.763L230.912 538.965L200.533 570.539L220.843 588.8Z" fill="#03CADA"/>
<path d="M648.192 572.416L678.229 542.549L658.261 522.581L627.883 554.155L648.192 572.416Z" fill="#2F2544"/>
<path d="M653.312 37.5466L614.059 2.21857L670.208 -55.8081L708.267 -17.5787L653.312 37.5466ZM624.469 1.87724L653.141 27.6479L698.197 -17.4081L670.208 -45.3974L624.469 1.87724Z" fill="#2F2544"/>
<path d="M63.8293 242.859C47.4453 259.243 47.4453 286.037 63.8293 302.421C80.2133 318.805 107.008 318.805 123.392 302.421L63.8293 242.859Z" fill="#2F2544"/>
<path d="M-28.3307 477.184C-11.9467 493.568 14.8479 493.568 31.2319 477.184C47.616 460.8 47.616 434.005 31.2319 417.621L-28.3307 477.184Z" fill="#03CADA"/>
<path d="M1138.52 611.499C1154.9 627.883 1181.7 627.883 1198.08 611.499C1214.46 595.115 1214.46 568.32 1198.08 551.936L1138.52 611.499Z" fill="#03CADA"/>
<path d="M5.46128 160.597C11.9466 154.453 22.0159 154.795 28.1599 161.109C34.3039 167.595 33.9626 177.664 27.6479 183.808C21.1626 189.952 11.0933 189.611 4.94928 183.296C-1.19472 176.811 -1.02405 166.571 5.46128 160.597Z" fill="#2F2544"/>
<path d="M40.448 127.147C46.9333 121.003 57.0026 121.344 63.1466 127.659C69.2906 134.144 68.9493 144.213 62.6346 150.357C56.1493 156.501 46.08 156.16 39.936 149.845C33.792 143.36 33.9626 133.291 40.448 127.147Z" fill="#2F2544"/>
<path d="M-3.41334 151.381C3.072 145.237 13.1413 145.579 19.2853 151.893C25.4293 158.379 25.088 168.448 18.7733 174.592C12.288 180.736 2.21866 180.395 -3.92533 174.08C-10.0693 167.595 -9.728 157.355 -3.41334 151.381Z" fill="#03CADA"/>
<path d="M31.744 117.931C38.2293 111.787 48.2987 112.128 54.4427 118.443C60.5867 124.928 60.2453 134.997 53.9307 141.141C47.4453 147.285 37.376 146.944 31.232 140.629C25.088 134.144 25.2587 124.075 31.744 117.931Z" fill="#03CADA"/>
<path d="M709.632 667.819C715.776 674.304 715.435 684.373 709.12 690.517C702.635 696.661 692.565 696.32 686.421 690.005C680.277 683.52 680.619 673.451 686.933 667.307C693.419 660.992 703.488 661.333 709.632 667.819Z" fill="#2F2544"/>
<path d="M742.912 702.805C749.056 709.291 748.715 719.36 742.4 725.504C735.915 731.648 725.845 731.307 719.701 724.992C713.557 718.507 713.899 708.437 720.213 702.293C726.699 696.149 736.939 696.32 742.912 702.805Z" fill="#2F2544"/>
<path d="M776.363 737.792C782.507 744.277 782.165 754.347 775.851 760.491C769.365 766.635 759.296 766.293 753.152 759.978C747.008 753.493 747.349 743.424 753.664 737.28C760.149 731.136 770.219 731.477 776.363 737.792Z" fill="#2F2544"/>
<path d="M809.643 772.949C815.787 779.435 815.445 789.504 809.131 795.648C802.645 801.792 792.576 801.451 786.432 795.136C780.288 788.651 780.629 778.581 786.944 772.437C793.429 766.293 803.499 766.464 809.643 772.949Z" fill="#2F2544"/>
<path d="M718.848 658.944C724.992 665.429 724.651 675.499 718.336 681.643C711.851 687.787 701.781 687.445 695.637 681.131C689.493 674.645 689.835 664.576 696.149 658.432C702.635 652.288 712.704 652.629 718.848 658.944Z" fill="#03CADA"/>
<path d="M752.128 694.101C758.272 700.587 757.931 710.656 751.616 716.8C745.131 722.944 735.061 722.603 728.917 716.288C722.773 709.803 723.115 699.733 729.429 693.589C735.915 687.445 746.155 687.616 752.128 694.101Z" fill="#03CADA"/>
<path d="M785.579 729.088C791.723 735.573 791.381 745.643 785.067 751.787C778.581 757.931 768.512 757.589 762.368 751.275C756.224 744.789 756.565 734.72 762.88 728.576C769.195 722.432 779.435 722.603 785.579 729.088Z" fill="#03CADA"/>
<path d="M818.859 764.075C825.003 770.56 824.661 780.629 818.347 786.773C811.861 792.917 801.792 792.576 795.648 786.261C789.504 779.947 789.845 769.707 796.16 763.563C802.645 757.419 812.715 757.76 818.859 764.075Z" fill="#03CADA"/>
<path d="M1175.04 380.928C1181.53 374.784 1191.77 375.125 1197.91 381.44C1204.05 387.925 1203.71 398.165 1197.4 404.309C1190.91 410.453 1180.67 410.112 1174.53 403.797C1168.38 397.312 1168.73 387.072 1175.04 380.928Z" fill="#2F2544"/>
<path d="M1210.37 347.307C1216.85 341.163 1227.09 341.504 1233.24 347.819C1239.38 354.304 1239.04 364.544 1232.73 370.688C1226.24 376.832 1216 376.491 1209.86 370.176C1203.71 363.691 1203.88 353.451 1210.37 347.307Z" fill="#2F2544"/>
<path d="M1245.7 313.856C1252.18 307.712 1262.42 308.053 1268.57 314.368C1274.71 320.853 1274.37 331.093 1268.05 337.237C1261.57 343.381 1251.33 343.04 1245.18 336.725C1239.04 330.069 1239.21 320 1245.7 313.856Z" fill="#2F2544"/>
<path d="M1281.02 280.235C1287.51 274.091 1297.75 274.432 1303.89 280.747C1310.04 287.232 1309.7 297.472 1303.38 303.616C1296.9 309.76 1286.66 309.419 1280.51 303.104C1274.37 296.619 1274.54 286.379 1281.02 280.235Z" fill="#2F2544"/>
<path d="M1166.34 371.712C1172.82 365.568 1183.06 365.909 1189.21 372.224C1195.35 378.709 1195.01 388.949 1188.69 395.093C1182.21 401.237 1171.97 400.896 1165.82 394.581C1159.51 388.096 1159.85 377.856 1166.34 371.712Z" fill="#03CADA"/>
<path d="M1201.66 338.091C1208.15 331.947 1218.39 332.288 1224.53 338.603C1230.68 345.088 1230.34 355.328 1224.02 361.472C1217.54 367.616 1207.3 367.275 1201.15 360.96C1194.84 354.475 1195.18 344.235 1201.66 338.091Z" fill="#03CADA"/>
<path d="M1236.99 304.469C1243.48 298.325 1253.72 298.667 1259.86 304.981C1266.01 311.467 1265.66 321.707 1259.35 327.851C1252.86 333.995 1242.62 333.653 1236.48 327.339C1230.17 320.853 1230.51 310.613 1236.99 304.469Z" fill="#03CADA"/>
<path d="M1272.15 270.848C1278.63 264.704 1288.87 265.045 1295.02 271.36C1301.16 277.845 1300.82 288.085 1294.51 294.229C1288.02 300.373 1277.78 300.032 1271.64 293.717C1265.49 287.232 1265.83 276.992 1272.15 270.848Z" fill="#03CADA"/>
<path d="M187.904 275.797L195.243 285.525L223.744 224.768L151.04 227.84L158.891 238.08L206.507 236.203L187.904 275.797Z" fill="#2F2544"/>
<path d="M206.507 236.203L158.891 238.08L133.803 239.104L178.005 296.789L187.904 275.797L206.507 236.203Z" fill="#03CADA"/>
<path d="M1022.46 373.589L1012.39 372.053L1029.46 425.131L1072.13 382.123L1061.38 380.245L1033.56 408.405L1022.46 373.589Z" fill="#2F2544"/>
<path d="M1033.56 408.405L1061.38 380.245L1076.05 365.397L1016.49 355.328L1022.46 373.589L1033.56 408.405Z" fill="#03CADA"/>
<path d="M302.998 487.119L280.914 509.203L302.998 531.287L325.082 509.203L302.998 487.119Z" fill="white"/>
<path d="M191.13 630.639L158.547 663.223L191.13 695.806L223.713 663.223L191.13 630.639Z" fill="#2F2544"/>
<path d="M1147.59 248.747L1120.56 275.779L1147.59 302.811L1174.62 275.779L1147.59 248.747Z" fill="#03CADA"/>
<path d="M283.307 400.896L299.008 448.683L334.848 413.355L283.307 400.896Z" fill="#2F2544"/>
<path d="M588.288 180.907L603.989 228.352L639.659 193.195L588.288 180.907Z" fill="#2F2544"/>
<path d="M907.947 481.963L888.661 480.939L889.003 472.405L901.291 473.088L904.533 457.557L920.405 458.411L923.819 442.88L939.691 443.733L942.251 431.787L950.613 433.664L946.517 452.608L930.645 451.755L927.232 467.285L911.36 466.432L907.947 481.963Z" fill="#03CADA"/>
<path d="M70.4853 717.653L304.811 784.213L125.781 954.88L70.4853 717.653ZM68.0959 715.264L124.757 958.293L308.053 783.36L68.0959 715.264Z" fill="#03CADA"/>
<path d="M782.677 281.259C782.677 279.552 781.312 278.187 779.605 278.187C777.899 278.187 776.533 279.552 776.533 281.259C776.533 282.965 777.899 284.331 779.605 284.331C781.312 284.331 782.677 282.965 782.677 281.259Z" fill="#2F2544"/>
<path d="M811.52 281.259C811.52 279.552 810.155 278.187 808.448 278.187C806.741 278.187 805.376 279.552 805.376 281.259C805.376 282.965 806.741 284.331 808.448 284.331C810.155 284.331 811.52 282.965 811.52 281.259Z" fill="#2F2544"/>
<path d="M840.363 281.259C840.363 279.552 838.997 278.187 837.291 278.187C835.584 278.187 834.219 279.552 834.219 281.259C834.219 282.965 835.584 284.331 837.291 284.331C838.997 284.331 840.363 282.965 840.363 281.259Z" fill="#2F2544"/>
<path d="M796.672 295.424C796.672 293.717 795.307 292.352 793.6 292.352C791.893 292.352 790.528 293.717 790.528 295.424C790.528 297.131 791.893 298.496 793.6 298.496C795.307 298.496 796.672 296.96 796.672 295.424Z" fill="#2F2544"/>
<path d="M825.685 295.424C825.685 293.717 824.32 292.352 822.613 292.352C820.907 292.352 819.541 293.717 819.541 295.424C819.541 297.131 820.907 298.496 822.613 298.496C824.32 298.325 825.685 296.96 825.685 295.424Z" fill="#2F2544"/>
<path d="M782.677 310.613C782.677 308.907 781.312 307.541 779.605 307.541C777.899 307.541 776.533 308.907 776.533 310.613C776.533 312.32 777.899 313.685 779.605 313.685C781.312 313.685 782.677 312.32 782.677 310.613Z" fill="#2F2544"/>
<path d="M811.52 310.613C811.52 308.907 810.155 307.541 808.448 307.541C806.741 307.541 805.376 308.907 805.376 310.613C805.376 312.32 806.741 313.685 808.448 313.685C810.155 313.685 811.52 312.32 811.52 310.613Z" fill="#2F2544"/>
<path d="M840.363 310.613C840.363 308.907 838.997 307.541 837.291 307.541C835.584 307.541 834.219 308.907 834.219 310.613C834.219 312.32 835.584 313.685 837.291 313.685C838.997 313.685 840.363 312.32 840.363 310.613Z" fill="#2F2544"/>
<path d="M796.672 324.779C796.672 323.072 795.307 321.707 793.6 321.707C791.893 321.707 790.528 323.072 790.528 324.779C790.528 326.485 791.893 327.851 793.6 327.851C795.307 327.851 796.672 326.315 796.672 324.779Z" fill="#2F2544"/>
<path d="M825.685 324.779C825.685 323.072 824.32 321.707 822.613 321.707C820.907 321.707 819.541 323.072 819.541 324.779C819.541 326.485 820.907 327.851 822.613 327.851C824.32 327.68 825.685 326.315 825.685 324.779Z" fill="#2F2544"/>
<path d="M782.677 339.797C782.677 338.091 781.312 336.725 779.605 336.725C777.899 336.725 776.533 338.091 776.533 339.797C776.533 341.504 777.899 342.869 779.605 342.869C781.312 342.869 782.677 341.504 782.677 339.797Z" fill="#2F2544"/>
<path d="M811.52 339.797C811.52 338.091 810.155 336.725 808.448 336.725C806.741 336.725 805.376 338.091 805.376 339.797C805.376 341.504 806.741 342.869 808.448 342.869C810.155 342.869 811.52 341.504 811.52 339.797Z" fill="#2F2544"/>
<path d="M840.363 339.797C840.363 338.091 838.997 336.725 837.291 336.725C835.584 336.725 834.219 338.091 834.219 339.797C834.219 341.504 835.584 342.869 837.291 342.869C838.997 342.869 840.363 341.504 840.363 339.797Z" fill="#2F2544"/>
<path d="M796.672 353.792C796.672 352.085 795.307 350.72 793.6 350.72C791.893 350.72 790.528 352.085 790.528 353.792C790.528 355.499 791.893 356.864 793.6 356.864C795.307 356.864 796.672 355.499 796.672 353.792Z" fill="#2F2544"/>
<path d="M825.685 353.792C825.685 352.085 824.32 350.72 822.613 350.72C820.907 350.72 819.541 352.085 819.541 353.792C819.541 355.499 820.907 356.864 822.613 356.864C824.32 356.864 825.685 355.499 825.685 353.792Z" fill="#2F2544"/>
<path d="M849.749 359.936C829.611 359.936 813.227 343.552 813.227 323.413C813.227 303.275 829.611 286.891 849.749 286.891C869.888 286.891 886.443 303.275 886.443 323.413C886.272 343.552 869.888 359.936 849.749 359.936ZM849.749 345.771C862.037 345.771 872.107 335.701 872.107 323.413C872.107 311.125 862.037 301.056 849.749 301.056C837.461 301.056 827.392 311.125 827.392 323.413C827.392 335.701 837.461 345.771 849.749 345.771Z" fill="#03CADA"/>
<path d="M167.245 7.73603C168.611 6.3707 168.611 4.15203 167.245 2.7867C165.88 1.42136 163.661 1.42136 162.296 2.7867C160.931 4.15203 160.931 6.3707 162.296 7.73603C163.661 9.10136 165.88 9.10136 167.245 7.73603Z" fill="#7B6490"/>
<path d="M190.797 31.2879C192.163 29.9226 192.163 27.7039 190.797 26.3386C189.432 24.9733 187.213 24.9733 185.848 26.3386C184.483 27.7039 184.483 29.9226 185.848 31.2879C187.213 32.6533 189.432 32.6533 190.797 31.2879Z" fill="#7B6490"/>
<path d="M214.179 54.6693C215.544 53.3039 215.544 51.0853 214.179 49.7199C212.813 48.3546 210.595 48.3546 209.229 49.7199C207.864 51.0853 207.864 53.3039 209.229 54.6693C210.595 56.0346 212.813 56.0346 214.179 54.6693Z" fill="#7B6490"/>
<path d="M143.864 7.22382C145.229 5.85849 145.229 3.63982 143.864 2.27449C142.499 0.909155 140.28 0.909155 138.915 2.27449C137.549 3.63982 137.549 5.85849 138.915 7.22382C140.28 8.58916 142.499 8.58916 143.864 7.22382Z" fill="#7B6490"/>
<path d="M167.245 30.6052C168.611 29.2399 168.611 27.0212 167.245 25.6559C165.88 24.2905 163.661 24.2905 162.296 25.6559C160.931 27.0212 160.931 29.2399 162.296 30.6052C163.661 31.9705 165.88 31.9705 167.245 30.6052Z" fill="#7B6490"/>
<path d="M190.797 53.9865C192.163 52.6212 192.163 50.4025 190.797 49.0372C189.432 47.6719 187.213 47.6719 185.848 49.0372C184.483 50.4025 184.483 52.6212 185.848 53.9865C187.213 55.3519 189.432 55.3519 190.797 53.9865Z" fill="#7B6490"/>
<path d="M119.971 8.24799C121.336 6.88266 121.336 4.66399 119.971 3.29866C118.605 1.93333 116.387 1.93333 115.021 3.29866C113.656 4.66399 113.656 6.88266 115.021 8.24799C116.387 9.61332 118.605 9.61332 119.971 8.24799Z" fill="#7B6490"/>
<path d="M143.352 31.6292C144.717 30.2639 144.717 28.0452 143.352 26.6799C141.987 25.3146 139.768 25.3146 138.403 26.6799C137.037 28.0452 137.037 30.2639 138.403 31.6292C139.939 32.9946 141.987 32.9946 143.352 31.6292Z" fill="#7B6490"/>
<path d="M166.904 55.0106C168.269 53.6452 168.269 51.4266 166.904 50.0613C165.539 48.6959 163.32 48.6959 161.955 50.0613C160.589 51.4266 160.589 53.6452 161.955 55.0106C163.32 56.3759 165.539 56.3759 166.904 55.0106Z" fill="#7B6490"/>
<path d="M190.285 78.5626C191.651 77.1973 191.651 74.9786 190.285 73.6133C188.92 72.2479 186.701 72.2479 185.336 73.6133C183.971 74.9786 183.971 77.1973 185.336 78.5626C186.701 79.9279 188.92 79.9279 190.285 78.5626Z" fill="#7B6490"/>
<path d="M96.5893 7.56537C97.9546 6.20004 97.9546 3.98137 96.5893 2.61604C95.224 1.25071 93.0053 1.25071 91.64 2.61604C90.2746 3.98137 90.2746 6.20004 91.64 7.56537C93.0053 8.93071 95.224 8.93071 96.5893 7.56537Z" fill="#7B6490"/>
<path d="M119.971 31.1173C121.336 29.7519 121.336 27.5333 119.971 26.1679C118.605 24.8026 116.387 24.8026 115.021 26.1679C113.656 27.5333 113.656 29.7519 115.021 31.1173C116.387 32.4826 118.605 32.4826 119.971 31.1173Z" fill="#7B6490"/>
<path d="M143.352 54.4985C144.717 53.1332 144.717 50.9145 143.352 49.5492C141.987 48.1839 139.768 48.1839 138.403 49.5492C137.037 50.9145 137.037 53.1332 138.403 54.4985C139.939 55.8638 141.987 55.8638 143.352 54.4985Z" fill="#7B6490"/>
<path d="M166.904 77.8798C168.269 76.5145 168.269 74.2958 166.904 72.9305C165.539 71.5652 163.32 71.5652 161.955 72.9305C160.589 74.2958 160.589 76.5145 161.955 77.8798C163.32 79.2452 165.539 79.2452 166.904 77.8798Z" fill="#7B6490"/>
<path d="M72.8666 8.41864C74.232 7.05331 74.232 4.83464 72.8666 3.46931C71.5013 2.10398 69.2826 2.10398 67.9173 3.46931C66.552 4.83464 66.552 7.05331 67.9173 8.41864C69.2826 9.78398 71.5013 9.78398 72.8666 8.41864Z" fill="#7B6490"/>
<path d="M96.4186 31.7999C97.784 30.4346 97.784 28.2159 96.4186 26.8506C95.0533 25.4852 92.8346 25.4852 91.4693 26.8506C90.104 28.2159 90.104 30.4346 91.4693 31.7999C92.8346 33.1652 95.0533 33.1652 96.4186 31.7999Z" fill="#7B6490"/>
<path d="M119.8 55.3519C121.165 53.9866 121.165 51.7679 119.8 50.4026C118.435 49.0372 116.216 49.0372 114.851 50.4026C113.485 51.7679 113.485 53.9866 114.851 55.3519C116.216 56.7172 118.435 56.7172 119.8 55.3519Z" fill="#7B6490"/>
<path d="M140.792 79.7571C142.677 79.7571 144.205 78.2289 144.205 76.3438C144.205 74.4587 142.677 72.9305 140.792 72.9305C138.907 72.9305 137.379 74.4587 137.379 76.3438C137.379 78.2289 138.907 79.7571 140.792 79.7571Z" fill="#7B6490"/>
<path d="M166.733 102.115C168.099 100.749 168.099 98.5306 166.733 97.1653C165.368 95.7999 163.149 95.7999 161.784 97.1653C160.419 98.5306 160.419 100.749 161.784 102.115C163.149 103.48 165.368 103.48 166.733 102.115Z" fill="#7B6490"/>
<path d="M72.8666 31.2879C74.232 29.9226 74.232 27.7039 72.8666 26.3386C71.5013 24.9733 69.2826 24.9733 67.9173 26.3386C66.552 27.7039 66.552 29.9226 67.9173 31.2879C69.2826 32.6533 71.5013 32.6533 72.8666 31.2879Z" fill="#7B6490"/>
<path d="M96.4186 54.6693C97.784 53.3039 97.784 51.0853 96.4186 49.7199C95.0533 48.3546 92.8346 48.3546 91.4693 49.7199C90.104 51.0853 90.104 53.3039 91.4693 54.6693C92.8346 56.0346 95.0533 56.0346 96.4186 54.6693Z" fill="#7B6490"/>
<path d="M119.8 78.0505C121.165 76.6852 121.165 74.4665 119.8 73.1012C118.435 71.7358 116.216 71.7358 114.851 73.1012C113.485 74.4665 113.485 76.6852 114.851 78.0505C116.216 79.4158 118.435 79.4158 119.8 78.0505Z" fill="#7B6490"/>
<path d="M140.792 102.456C142.677 102.456 144.205 100.928 144.205 99.0426C144.205 97.1575 142.677 95.6293 140.792 95.6293C138.907 95.6293 137.379 97.1575 137.379 99.0426C137.379 100.928 138.907 102.456 140.792 102.456Z" fill="#7B6490"/>
<path d="M48.9733 32.3118C50.3387 30.9465 50.3387 28.7279 48.9733 27.3625C47.608 25.9972 45.3893 25.9972 44.024 27.3625C42.6587 28.7279 42.6587 30.9465 44.024 32.3118C45.56 33.6772 47.608 33.6772 48.9733 32.3118Z" fill="#7B6490"/>
<path d="M72.5253 55.6932C73.8907 54.3279 73.8907 52.1092 72.5253 50.7439C71.16 49.3785 68.9413 49.3785 67.576 50.7439C66.2107 52.1092 66.2107 54.3279 67.576 55.6932C68.9413 57.0585 71.16 57.0585 72.5253 55.6932Z" fill="#7B6490"/>
<path d="M95.9067 79.0745C97.272 77.7092 97.272 75.4906 95.9067 74.1252C94.5413 72.7599 92.3227 72.7599 90.9573 74.1252C89.592 75.4906 89.592 77.7092 90.9573 79.0745C92.3227 80.4399 94.5413 80.4399 95.9067 79.0745Z" fill="#7B6490"/>
<path d="M116.899 103.48C118.784 103.48 120.312 101.952 120.312 100.067C120.312 98.1814 118.784 96.6532 116.899 96.6532C115.014 96.6532 113.485 98.1814 113.485 100.067C113.485 101.952 115.014 103.48 116.899 103.48Z" fill="#7B6490"/>
<path d="M142.84 126.008C144.205 124.643 144.205 122.424 142.84 121.059C141.475 119.693 139.256 119.693 137.891 121.059C136.525 122.424 136.525 124.643 137.891 126.008C139.256 127.373 141.475 127.373 142.84 126.008Z" fill="#7B6490"/>
<path d="M611.84 682.496L540.331 661.845L601.429 602.795L611.84 682.496ZM550.4 659.456L605.696 675.499L597.504 613.717L550.4 659.456Z" fill="#03CADA"/>
<path d="M725.845 360.789L707.072 425.813L653.312 370.347L725.845 360.789ZM704.683 416.768L719.189 366.421L663.04 373.76L704.683 416.768Z" fill="#03CADA"/>
<path d="M-0.682701 726.357C-25.7707 726.357 -46.2507 705.877 -46.2507 680.789C-46.2507 655.701 -25.7707 635.221 -0.682701 635.221C24.4053 635.221 44.8853 655.701 44.8853 680.789C45.056 705.877 24.576 726.357 -0.682701 726.357ZM-0.682701 661.333C-11.264 661.333 -19.968 670.037 -19.968 680.619C-19.968 691.2 -11.264 699.904 -0.682701 699.904C9.89863 699.904 18.6027 691.2 18.6027 680.619C18.6027 670.037 10.0693 661.333 -0.682701 661.333Z" fill="#2F2544"/>
<path d="M1276.07 539.648C1240.06 539.648 1210.88 510.464 1210.88 474.453C1210.88 438.443 1240.06 409.259 1276.07 409.259C1312.09 409.259 1341.27 438.443 1341.27 474.453C1341.1 510.464 1311.91 539.648 1276.07 539.648ZM1276.07 446.976C1260.89 446.976 1248.6 459.264 1248.6 474.453C1248.6 489.643 1260.89 501.931 1276.07 501.931C1291.26 501.931 1303.55 489.643 1303.55 474.453C1303.55 459.264 1291.26 446.976 1276.07 446.976Z" fill="#2F2544"/>
<path d="M213.845 688.469L191.829 666.453L220.16 638.123L242.176 660.139L213.845 688.469ZM197.803 666.283L213.845 682.325L236.032 660.139L219.989 644.096L197.803 666.283Z" fill="#03CADA"/>
</g>
<defs>
<clipPath id="clip0">
<rect width="1280" height="800" fill="white"/>
</clipPath>
</defs>
</svg>
