<svg width="160" height="90" viewBox="0 0 160 90" fill="none" xmlns="http://www.w3.org/2000/svg">
<path d="M76.9296 56.5828H75.6396V53.1328H76.8796C77.5996 53.1328 77.9697 53.5328 77.9697 54.0128C77.9731 54.1928 77.9158 54.3687 77.8069 54.512C77.698 54.6554 77.544 54.7578 77.3697 54.8028C77.5628 54.846 77.7354 54.9538 77.859 55.1083C77.9826 55.2629 78.0499 55.4549 78.0497 55.6528C78.0497 56.1328 77.6396 56.5828 76.9296 56.5828ZM76.8396 53.5028H76.0896V54.6228H76.8496C77.2696 54.6228 77.5097 54.4128 77.5097 54.0628C77.5097 53.7128 77.2796 53.5028 76.8396 53.5028ZM76.8396 54.9928H76.0596V56.2128H76.8596C77.2996 56.2128 77.5696 55.9928 77.5696 55.6128C77.5696 55.2328 77.3097 54.9928 76.8697 54.9928H76.8396Z" fill="#6C6C75"/>
<path d="M81.1396 53.1328H81.5896V55.3128C81.5896 55.9528 81.9297 56.2228 82.4397 56.2228C82.9497 56.2228 83.2896 55.9528 83.2896 55.3128V53.1328H83.7396V55.3128C83.7396 55.6576 83.6027 55.9883 83.3589 56.2321C83.1151 56.4758 82.7844 56.6128 82.4397 56.6128C82.0949 56.6128 81.7642 56.4758 81.5204 56.2321C81.2766 55.9883 81.1396 55.6576 81.1396 55.3128V53.1328Z" fill="#6C6C75"/>
<path d="M88.0701 56.6228C87.3701 56.6228 86.8801 56.2328 86.8701 55.6228H87.3501C87.3588 55.708 87.3844 55.7906 87.4255 55.8657C87.4667 55.9408 87.5225 56.0069 87.5896 56.0601C87.6567 56.1132 87.7339 56.1523 87.8164 56.1752C87.8989 56.198 87.9852 56.204 88.0701 56.1928C88.5001 56.1928 88.7601 55.9528 88.7601 55.6228C88.7601 54.6928 86.8901 55.2828 86.8901 54.0028C86.8901 53.4328 87.3501 53.0528 88.0401 53.0528C88.1731 53.0332 88.3087 53.0406 88.4388 53.0746C88.5688 53.1085 88.6907 53.1684 88.7972 53.2505C88.9036 53.3327 88.9923 53.4354 89.0581 53.5527C89.1239 53.6699 89.1654 53.7992 89.1801 53.9328H88.6901C88.6589 53.782 88.5735 53.6478 88.45 53.5557C88.3265 53.4636 88.1736 53.4198 88.0201 53.4328C87.9384 53.42 87.8549 53.4247 87.7752 53.4468C87.6955 53.4689 87.6215 53.5077 87.558 53.5608C87.4946 53.6138 87.4432 53.6798 87.4073 53.7543C87.3715 53.8288 87.352 53.9102 87.3501 53.9928C87.3501 54.8828 89.2101 54.3228 89.2101 55.6028C89.2145 55.7485 89.1869 55.8933 89.1295 56.0272C89.072 56.1611 88.9859 56.2808 88.8774 56.378C88.7688 56.4751 88.6403 56.5474 88.5008 56.5897C88.3614 56.632 88.2144 56.6433 88.0701 56.6228Z" fill="#6C6C75"/>
<path d="M93.9097 53.1328C94.2474 53.1115 94.5833 53.1965 94.8703 53.3758C95.1573 53.5552 95.3809 53.8199 95.5097 54.1328H94.9997C94.9115 53.9284 94.7624 53.7563 94.5726 53.64C94.3829 53.5236 94.1618 53.4687 93.9397 53.4828C93.5763 53.4828 93.2279 53.6271 92.9709 53.8841C92.714 54.141 92.5697 54.4895 92.5697 54.8528C92.5697 55.2162 92.714 55.5646 92.9709 55.8215C93.2279 56.0785 93.5763 56.2228 93.9397 56.2228C94.1604 56.2363 94.3801 56.1822 94.5694 56.0679C94.7587 55.9536 94.9088 55.7844 94.9997 55.5828H95.5397C95.4108 55.8957 95.1873 56.1604 94.9003 56.3398C94.6133 56.5191 94.2774 56.6041 93.9397 56.5828C93.4729 56.5828 93.0252 56.3974 92.6952 56.0673C92.3651 55.7373 92.1797 55.2896 92.1797 54.8228C92.1797 54.356 92.3651 53.9084 92.6952 53.5783C93.0252 53.2482 93.4729 53.0628 93.9397 53.0628L93.9097 53.1328Z" fill="#6C6C75"/>
<path d="M100.7 55.8128H99.1904L98.9104 56.5828H98.4404L99.6904 53.1328H100.21L101.45 56.5628H101L100.7 55.8128ZM99.9404 53.7028L99.3204 55.4528H100.57L99.9404 53.7028Z" fill="#6C6C75"/>
<path d="M105.57 56.6228C104.87 56.6228 104.38 56.2328 104.37 55.6228H104.85C104.859 55.708 104.884 55.7906 104.926 55.8657C104.967 55.9408 105.022 56.0069 105.09 56.0601C105.157 56.1132 105.234 56.1523 105.316 56.1752C105.399 56.198 105.485 56.204 105.57 56.1928C106 56.1928 106.26 55.9528 106.26 55.6228C106.26 54.6928 104.39 55.2828 104.39 54.0028C104.39 53.4328 104.85 53.0528 105.54 53.0528C105.673 53.0332 105.809 53.0406 105.939 53.0746C106.069 53.1085 106.191 53.1684 106.297 53.2505C106.404 53.3327 106.492 53.4354 106.558 53.5527C106.624 53.6699 106.665 53.7992 106.68 53.9328H106.18C106.153 53.7817 106.07 53.6464 105.948 53.5537C105.826 53.461 105.673 53.4179 105.52 53.4328C105.14 53.4328 104.85 53.6228 104.85 53.9928C104.85 54.8828 106.71 54.3228 106.71 55.6028C106.714 55.7485 106.687 55.8933 106.629 56.0272C106.572 56.1611 106.486 56.2808 106.377 56.378C106.269 56.4751 106.14 56.5474 106.001 56.5897C105.861 56.632 105.714 56.6433 105.57 56.6228Z" fill="#6C6C75"/>
<path d="M116.37 53.1328V56.5828H115.92L114.11 53.8328V56.5828H113.65V53.1328H114.11L115.92 55.8728V53.1328H116.37Z" fill="#6C6C75"/>
<path d="M121.18 56.6228C120.828 56.6308 120.482 56.5338 120.186 56.3442C119.89 56.1546 119.657 55.881 119.517 55.5584C119.376 55.2357 119.336 54.8786 119.399 54.5327C119.463 54.1868 119.628 53.8676 119.874 53.6161C120.12 53.3645 120.435 53.1919 120.78 53.1203C121.124 53.0487 121.482 53.0814 121.808 53.2141C122.134 53.3468 122.412 53.5736 122.609 53.8654C122.805 54.1573 122.91 54.5011 122.91 54.8528C122.92 55.0844 122.882 55.3156 122.799 55.532C122.716 55.7484 122.589 55.9456 122.427 56.1114C122.265 56.2772 122.071 56.4081 121.857 56.496C121.642 56.584 121.412 56.6271 121.18 56.6228ZM121.18 56.2228C121.454 56.2429 121.728 56.1799 121.967 56.0421C122.205 55.9043 122.396 55.698 122.515 55.4501C122.634 55.2022 122.676 54.9242 122.635 54.6522C122.594 54.3802 122.472 54.1268 122.285 53.9251C122.098 53.7234 121.854 53.5826 121.586 53.5211C121.318 53.4597 121.038 53.4803 120.782 53.5804C120.525 53.6805 120.305 53.8554 120.15 54.0823C119.994 54.3093 119.911 54.5778 119.91 54.8528C119.895 55.0282 119.916 55.2048 119.973 55.3712C120.03 55.5377 120.122 55.6904 120.241 55.8195C120.361 55.9486 120.506 56.0512 120.668 56.1206C120.83 56.1901 121.004 56.2249 121.18 56.2228Z" fill="#6C6C75"/>
<path d="M132.94 54.1328H132.4C132.306 53.9364 132.156 53.772 131.97 53.6599C131.783 53.5479 131.567 53.4933 131.35 53.5028C130.992 53.5028 130.648 53.6451 130.395 53.8982C130.142 54.1514 130 54.4948 130 54.8528C130 55.2109 130.142 55.5542 130.395 55.8074C130.648 56.0606 130.992 56.2028 131.35 56.2028C131.651 56.2167 131.946 56.1128 132.172 55.913C132.398 55.7133 132.537 55.4335 132.56 55.1328H131.18V54.7628H133V55.1128C132.964 55.5354 132.771 55.929 132.457 56.2147C132.144 56.5003 131.734 56.6568 131.31 56.6528C130.843 56.6528 130.395 56.4674 130.065 56.1373C129.735 55.8073 129.55 55.3596 129.55 54.8928C129.55 54.426 129.735 53.9784 130.065 53.6483C130.395 53.3182 130.843 53.1328 131.31 53.1328C131.652 53.1096 131.992 53.1934 132.284 53.3726C132.577 53.5518 132.806 53.8175 132.94 54.1328Z" fill="#6C6C75"/>
<path d="M136.11 53.1328H136.56V56.5828H136.11V53.1328Z" fill="#6C6C75"/>
<path d="M139.59 53.1328H141.93V53.5028H141V56.5828H140.55V53.5028H139.6L139.59 53.1328Z" fill="#6C6C75"/>
<path d="M147.17 55.0228H145.41V56.5828H145V53.1328H145.45V54.6528H147.21V53.1328H147.66V56.5828H147.21L147.17 55.0228Z" fill="#6C6C75"/>
<path d="M150.85 53.1328H151.3V55.3128C151.281 55.4323 151.289 55.5545 151.325 55.6701C151.361 55.7857 151.423 55.8915 151.506 55.9795C151.589 56.0674 151.691 56.1351 151.804 56.1773C151.918 56.2194 152.039 56.235 152.16 56.2228C152.66 56.2228 153 55.9528 153 55.3128V53.1328H153.45V55.3128C153.45 55.6576 153.313 55.9883 153.069 56.2321C152.825 56.4758 152.494 56.6128 152.15 56.6128C151.805 56.6128 151.474 56.4758 151.23 56.2321C150.987 55.9883 150.85 55.6576 150.85 55.3128V53.1328Z" fill="#6C6C75"/>
<path d="M158 56.5828H156.71V53.1328H157.95C158.68 53.1328 159.04 53.5328 159.04 54.0128C159.043 54.1928 158.986 54.3687 158.877 54.512C158.768 54.6554 158.614 54.7578 158.44 54.8028C158.634 54.8443 158.808 54.9516 158.932 55.1065C159.055 55.2614 159.122 55.4544 159.12 55.6528C159.09 56.1328 158.68 56.5828 158 56.5828ZM157.91 53.5028H157.16V54.6228H157.92C158.34 54.6228 158.58 54.4128 158.58 54.0628C158.58 53.7128 158.32 53.5028 157.88 53.5028H157.91ZM157.91 54.9928H157.12V56.2128H157.92C158.37 56.2128 158.63 55.9928 158.63 55.6128C158.63 55.2328 158.36 54.9928 157.92 54.9928H157.91Z" fill="#6C6C75"/>
<path d="M159.66 51.0028H28.8C28.7098 51.0028 28.6233 51.0386 28.5595 51.1024C28.4958 51.1662 28.46 51.2526 28.46 51.3428C28.4599 51.4339 28.4954 51.5215 28.5589 51.5868C28.6224 51.6522 28.7089 51.6902 28.8 51.6928H159.66C159.751 51.6902 159.838 51.6522 159.901 51.5868C159.965 51.5215 160 51.4339 160 51.3428C160 51.2526 159.964 51.1662 159.9 51.1024C159.837 51.0386 159.75 51.0028 159.66 51.0028Z" fill="#D3D3DD"/>
<path d="M32.2401 48.2328V38.5228H29.6201C29.3549 38.5228 29.1005 38.4175 28.913 38.2299C28.7255 38.0424 28.6201 37.788 28.6201 37.5228C28.6201 37.2576 28.7255 37.0033 28.913 36.8157C29.1005 36.6282 29.3549 36.5228 29.6201 36.5228H36.8001C37.0653 36.5228 37.3197 36.6282 37.5072 36.8157C37.6948 37.0033 37.8001 37.2576 37.8001 37.5228C37.8001 37.788 37.6948 38.0424 37.5072 38.2299C37.3197 38.4175 37.0653 38.5228 36.8001 38.5228H34.1701V48.2328C34.1701 48.498 34.0648 48.7524 33.8772 48.9399C33.6897 49.1275 33.4353 49.2328 33.1701 49.2328C33.0423 49.2317 32.9161 49.2046 32.7991 49.153C32.6821 49.1015 32.5769 49.0266 32.4899 48.933C32.4028 48.8394 32.3358 48.729 32.2928 48.6087C32.2499 48.4883 32.232 48.3604 32.2401 48.2328Z" fill="#54535B"/>
<path d="M39.3496 48.2328V37.5328C39.3496 37.2676 39.4549 37.0133 39.6425 36.8257C39.83 36.6382 40.0844 36.5328 40.3496 36.5328C40.6148 36.5328 40.8691 36.6382 41.0567 36.8257C41.2442 37.0133 41.3496 37.2676 41.3496 37.5328V41.9228H46.6996V37.5328C46.6996 37.2676 46.8049 37.0133 46.9925 36.8257C47.18 36.6382 47.4344 36.5328 47.6996 36.5328C47.9648 36.5328 48.2191 36.6382 48.4067 36.8257C48.5942 37.0133 48.6996 37.2676 48.6996 37.5328V48.2328C48.6996 48.4981 48.5942 48.7524 48.4067 48.9399C48.2191 49.1275 47.9648 49.2328 47.6996 49.2328C47.4344 49.2328 47.18 49.1275 46.9925 48.9399C46.8049 48.7524 46.6996 48.4981 46.6996 48.2328V43.8928H41.3096V48.2328C41.3096 48.4981 41.2042 48.7524 41.0167 48.9399C40.8291 49.1275 40.5748 49.2328 40.3096 49.2328C40.0444 49.2328 39.79 49.1275 39.6025 48.9399C39.4149 48.7524 39.3096 48.4981 39.3096 48.2328H39.3496Z" fill="#54535B"/>
<path d="M51.2305 48.2228V37.5528C51.2305 37.2876 51.3358 37.0333 51.5234 36.8457C51.7109 36.6582 51.9652 36.5528 52.2305 36.5528H57.5005C57.7657 36.5528 58.02 36.6582 58.2076 36.8457C58.3951 37.0333 58.5005 37.2876 58.5005 37.5528C58.5005 37.818 58.3951 38.0724 58.2076 38.2599C58.02 38.4475 57.7657 38.5528 57.5005 38.5528H53.2005V41.9628H56.3305C56.5382 42.0234 56.7206 42.1497 56.8505 42.3228C56.9803 42.4959 57.0505 42.7065 57.0505 42.9228C57.0505 43.1392 56.9803 43.3497 56.8505 43.5228C56.7206 43.6959 56.5382 43.8222 56.3305 43.8828H53.2005V47.2628H57.4905C57.7557 47.2628 58.01 47.3682 58.1976 47.5557C58.3851 47.7433 58.4905 47.9976 58.4905 48.2628C58.4911 48.5164 58.3954 48.7606 58.2227 48.9463C58.0501 49.1319 57.8134 49.2451 57.5605 49.2628H52.1405C51.8841 49.2399 51.6464 49.119 51.4769 48.9253C51.3074 48.7316 51.2191 48.48 51.2305 48.2228Z" fill="#54535B"/>
<path d="M63.8204 42.9128C63.8146 41.6416 64.1875 40.3974 64.8916 39.3389C65.5957 38.2805 66.599 37.4557 67.7737 36.9697C68.9484 36.4837 70.2413 36.3586 71.4874 36.6103C72.7335 36.8619 73.8764 37.479 74.7704 38.3828C74.8631 38.4699 74.9368 38.5754 74.9867 38.6924C75.0366 38.8095 75.0617 38.9356 75.0604 39.0628C75.0604 39.328 74.955 39.5824 74.7675 39.7699C74.5799 39.9575 74.3256 40.0628 74.0604 40.0628C73.9357 40.0629 73.8123 40.0382 73.6972 39.9901C73.5822 39.9421 73.4779 39.8716 73.3904 39.7828C72.9707 39.3664 72.4728 39.0371 71.9253 38.814C71.3778 38.5908 70.7916 38.4783 70.2004 38.4828C69.058 38.537 67.9803 39.029 67.1909 39.8567C66.4016 40.6843 65.9613 41.7841 65.9613 42.9278C65.9613 44.0715 66.4016 45.1713 67.1909 45.999C67.9803 46.8266 69.058 47.3186 70.2004 47.3728C71.0006 47.4443 71.8017 47.2444 72.4746 46.8055C73.1475 46.3665 73.6532 45.714 73.9104 44.9528H71.8504C71.5852 44.9528 71.3308 44.8475 71.1433 44.6599C70.9557 44.4724 70.8504 44.218 70.8504 43.9528C70.8504 43.6876 70.9557 43.4332 71.1433 43.2457C71.3308 43.0582 71.5852 42.9528 71.8504 42.9528H75.0904C75.3556 42.9528 75.6099 43.0582 75.7975 43.2457C75.985 43.4332 76.0904 43.6876 76.0904 43.9528C76.0025 45.4356 75.3383 46.8253 74.2396 47.825C73.1409 48.8246 71.6949 49.355 70.2104 49.3028C69.3709 49.3041 68.5393 49.1398 67.7635 48.8191C66.9876 48.4984 66.2827 48.0278 65.689 47.4342C65.0954 46.8405 64.6248 46.1356 64.3041 45.3597C63.9834 44.5839 63.8191 43.7523 63.8204 42.9128Z" fill="#54535B"/>
<path d="M78 48.2328V37.5328C78 37.2676 78.1054 37.0133 78.2929 36.8257C78.4804 36.6382 78.7348 36.5328 79 36.5328C79.2652 36.5328 79.5196 36.6382 79.7071 36.8257C79.8946 37.0133 80 37.2676 80 37.5328V48.2328C80 48.4981 79.8946 48.7524 79.7071 48.9399C79.5196 49.1275 79.2652 49.2328 79 49.2328C78.7348 49.2328 78.4804 49.1275 78.2929 48.9399C78.1054 48.7524 78 48.4981 78 48.2328Z" fill="#54535B"/>
<path d="M84.9996 48.2328V38.5228H82.3896C82.1244 38.5228 81.8701 38.4175 81.6825 38.2299C81.495 38.0424 81.3896 37.788 81.3896 37.5228C81.3896 37.2576 81.495 37.0033 81.6825 36.8157C81.8701 36.6282 82.1244 36.5228 82.3896 36.5228H89.5797C89.8449 36.5228 90.0992 36.6282 90.2868 36.8157C90.4743 37.0033 90.5797 37.2576 90.5797 37.5228C90.5797 37.788 90.4743 38.0424 90.2868 38.2299C90.0992 38.4175 89.8449 38.5228 89.5797 38.5228H86.9397V48.2328C86.9397 48.498 86.8343 48.7524 86.6468 48.9399C86.4592 49.1275 86.2049 49.2328 85.9397 49.2328C85.8106 49.2346 85.6825 49.2094 85.5637 49.159C85.4448 49.1086 85.3378 49.0339 85.2494 48.9399C85.161 48.8458 85.0931 48.7344 85.0501 48.6126C85.0071 48.4909 84.9899 48.3616 84.9996 48.2328Z" fill="#54535B"/>
<path d="M96.0001 46.8928C95.9181 46.7244 95.8737 46.5401 95.8701 46.3528C95.8879 46.0999 96.001 45.8632 96.1866 45.6905C96.3723 45.5179 96.6166 45.4222 96.8701 45.4228C97.0593 45.4312 97.243 45.4892 97.4027 45.591C97.5625 45.6928 97.6926 45.8348 97.7801 46.0028C98.0643 46.4391 98.4571 46.7939 98.92 47.0324C99.3829 47.2708 99.8999 47.3847 100.42 47.3628C101.58 47.3628 102.79 46.7128 102.79 45.5528C102.79 44.3928 101.56 44.0628 100.44 43.7728C98.0001 43.3128 96.1201 42.2628 96.1201 40.1328C96.1532 39.6212 96.2868 39.121 96.5133 38.6611C96.7399 38.2011 97.0549 37.7904 97.4403 37.4523C97.8258 37.1142 98.2741 36.8554 98.7597 36.6908C99.2453 36.5261 99.7585 36.4589 100.27 36.4928C100.996 36.4579 101.719 36.6074 102.371 36.9274C103.023 37.2474 103.584 37.7275 104 38.3228C104.067 38.4383 104.101 38.5695 104.1 38.7028C104.099 38.8219 104.074 38.9395 104.027 39.0488C103.98 39.1582 103.911 39.2571 103.826 39.3399C103.74 39.4227 103.639 39.4876 103.528 39.5311C103.418 39.5745 103.299 39.5955 103.18 39.5928C102.968 39.606 102.759 39.542 102.59 39.4128C102.297 39.0848 101.936 38.8252 101.531 38.6524C101.127 38.4796 100.69 38.3978 100.25 38.4128C99.0701 38.4128 98.0601 39.0428 98.0501 40.0728C98.0401 41.1028 99.3801 41.5228 100.92 41.8528C102.77 42.3528 104.61 43.2128 104.61 45.4128C104.61 47.6128 102.61 49.3028 100.21 49.3028C99.3568 49.3154 98.5157 49.0983 97.7751 48.6743C97.0344 48.2504 96.4214 47.635 96.0001 46.8928Z" fill="#54535B"/>
<path d="M106.46 48.2228V37.5528C106.46 37.2876 106.565 37.0333 106.753 36.8457C106.94 36.6582 107.195 36.5528 107.46 36.5528H112.73C112.995 36.5528 113.249 36.6582 113.437 36.8457C113.624 37.0333 113.73 37.2876 113.73 37.5528C113.73 37.818 113.624 38.0724 113.437 38.2599C113.249 38.4475 112.995 38.5528 112.73 38.5528H108.44V41.9628H111.58C111.788 42.0234 111.97 42.1497 112.1 42.3228C112.23 42.4959 112.3 42.7065 112.3 42.9228C112.3 43.1392 112.23 43.3497 112.1 43.5228C111.97 43.6959 111.788 43.8222 111.58 43.8828H108.48V47.2628H112.77C113.035 47.2628 113.289 47.3682 113.477 47.5557C113.664 47.7433 113.77 47.9976 113.77 48.2628C113.77 48.5164 113.675 48.7606 113.502 48.9463C113.329 49.1319 113.093 49.2451 112.84 49.2628H107.45C107.316 49.2616 107.184 49.2335 107.061 49.1801C106.938 49.1268 106.827 49.0493 106.735 48.9524C106.642 48.8554 106.57 48.7408 106.523 48.6155C106.476 48.4902 106.454 48.3566 106.46 48.2228Z" fill="#54535B"/>
<path d="M114.4 48.2728C114.398 48.1171 114.432 47.963 114.5 47.8228L119.13 37.1328C119.206 36.9552 119.331 36.8031 119.49 36.6948C119.65 36.5866 119.837 36.5269 120.03 36.5228C120.221 36.5221 120.406 36.5791 120.564 36.6862C120.721 36.7933 120.842 36.9456 120.91 37.1228L125.49 47.7828C125.553 47.9248 125.587 48.0777 125.59 48.2328C125.591 48.3611 125.565 48.488 125.513 48.6057C125.462 48.7233 125.388 48.8291 125.294 48.9165C125.2 49.0038 125.089 49.0708 124.968 49.1132C124.847 49.1556 124.718 49.1725 124.59 49.1628C124.4 49.1605 124.214 49.1038 124.054 48.9992C123.895 48.8947 123.769 48.7467 123.69 48.5728L122.45 45.6428H117.45L116.24 48.5628C116.143 48.7521 115.987 48.9052 115.796 48.9998C115.605 49.0943 115.389 49.1255 115.179 49.0887C114.969 49.0518 114.777 48.9489 114.629 48.795C114.482 48.641 114.388 48.4441 114.36 48.2328L114.4 48.2728ZM121.66 43.7228L119.98 39.7228L118.31 43.7228H121.66Z" fill="#54535B"/>
<path d="M127.08 48.2328V37.5328C127.08 37.2676 127.185 37.0133 127.372 36.8257C127.56 36.6382 127.814 36.5328 128.08 36.5328H131.39C131.886 36.5262 132.379 36.6179 132.839 36.8027C133.3 36.9874 133.719 37.2616 134.074 37.6092C134.428 37.9569 134.71 38.3713 134.903 38.8285C135.096 39.2856 135.197 39.7765 135.2 40.2728C135.201 41.0444 134.961 41.7969 134.512 42.4247C134.064 43.0526 133.43 43.524 132.7 43.7728L135 47.7528C135.086 47.8941 135.131 48.057 135.13 48.2228C135.13 48.488 135.024 48.7424 134.837 48.9299C134.649 49.1175 134.395 49.2228 134.13 49.2228C133.957 49.22 133.788 49.1725 133.639 49.0849C133.49 48.9973 133.366 48.8725 133.28 48.7228L130.53 44.0428H129.02V48.2328C129.02 48.498 128.914 48.7524 128.727 48.9399C128.539 49.1275 128.285 49.2328 128.02 49.2328C127.754 49.2328 127.5 49.1275 127.312 48.9399C127.125 48.7524 127.02 48.498 127.02 48.2328H127.08ZM131.38 42.0528C131.857 42.0479 132.313 41.859 132.654 41.5255C132.995 41.1919 133.194 40.7396 133.21 40.2628C133.204 40.0269 133.153 39.7943 133.057 39.5784C132.962 39.3626 132.825 39.1677 132.654 39.0051C132.483 38.8424 132.281 38.7152 132.061 38.6307C131.84 38.5463 131.605 38.5062 131.37 38.5128H129.05V42.0528H131.38Z" fill="#54535B"/>
<path d="M136.44 42.9128C136.434 41.6416 136.807 40.3974 137.511 39.3389C138.215 38.2805 139.218 37.4557 140.393 36.9697C141.568 36.4837 142.86 36.3586 144.106 36.6103C145.353 36.8619 146.496 37.479 147.39 38.3828C147.482 38.4699 147.556 38.5754 147.606 38.6924C147.656 38.8095 147.681 38.9356 147.68 39.0628C147.672 39.2526 147.61 39.4363 147.501 39.5922C147.393 39.7482 147.242 39.8701 147.067 39.9435C146.892 40.0169 146.699 40.0389 146.512 40.007C146.325 39.975 146.15 39.8903 146.01 39.7628C145.387 39.1414 144.594 38.7186 143.731 38.5476C142.868 38.3767 141.974 38.4654 141.161 38.8025C140.349 39.1396 139.654 39.7099 139.166 40.4415C138.677 41.1731 138.416 42.0331 138.416 42.9128C138.416 43.7925 138.677 44.6525 139.166 45.3841C139.654 46.1157 140.349 46.6861 141.161 47.0232C141.974 47.3603 142.868 47.4489 143.731 47.278C144.594 47.1071 145.387 46.6842 146.01 46.0628C146.196 45.8878 146.443 45.7911 146.7 45.7928C146.833 45.784 146.967 45.8038 147.092 45.8509C147.218 45.898 147.332 45.9714 147.426 46.0661C147.521 46.1608 147.594 46.2746 147.641 46.3999C147.689 46.5253 147.708 46.6592 147.7 46.7928C147.698 47.0503 147.598 47.2974 147.42 47.4828C146.526 48.3825 145.384 48.9964 144.141 49.2464C142.898 49.4963 141.608 49.3712 140.436 48.8869C139.263 48.4026 138.262 47.5809 137.557 46.5262C136.853 45.4714 136.478 44.2311 136.48 42.9628L136.44 42.9128Z" fill="#54535B"/>
<path d="M149.4 48.2328V37.5328C149.4 37.2676 149.506 37.0133 149.693 36.8257C149.881 36.6382 150.135 36.5328 150.4 36.5328C150.666 36.5328 150.92 36.6382 151.107 36.8257C151.295 37.0133 151.4 37.2676 151.4 37.5328V41.9228H156.79V37.5328C156.79 37.2676 156.896 37.0133 157.083 36.8257C157.271 36.6382 157.525 36.5328 157.79 36.5328C158.056 36.5328 158.31 36.6382 158.497 36.8257C158.685 37.0133 158.79 37.2676 158.79 37.5328V48.2328C158.79 48.4981 158.685 48.7524 158.497 48.9399C158.31 49.1275 158.056 49.2328 157.79 49.2328C157.525 49.2328 157.271 49.1275 157.083 48.9399C156.896 48.7524 156.79 48.4981 156.79 48.2328V43.8928H151.4V48.2328C151.4 48.4981 151.295 48.7524 151.107 48.9399C150.92 49.1275 150.666 49.2328 150.4 49.2328C150.135 49.2328 149.881 49.1275 149.693 48.9399C149.506 48.7524 149.4 48.4981 149.4 48.2328Z" fill="#54535B"/>
<path style="mix-blend-mode:multiply" opacity="0.4" d="M39.15 90C60.7719 90 78.3 88.5807 78.3 86.83C78.3 85.0793 60.7719 83.66 39.15 83.66C17.5281 83.66 0 85.0793 0 86.83C0 88.5807 17.5281 90 39.15 90Z" fill="url(#paint0_radial)"/>
<path d="M42.6604 67.1828C35.7204 69.1828 28.7704 67.1828 22.1704 62.9328C10.5804 55.4328 8.05044 40.9328 14.5104 28.9328C21.3204 16.3428 36.5104 12.8228 48.7404 20.1928C51.2215 21.6761 53.4329 23.5696 55.2804 25.7928C56.554 27.3565 58.2439 28.528 60.1549 29.1721C62.0659 29.8162 64.1202 29.9066 66.0804 29.4328L66.4204 29.3428C67.4689 29.0866 68.445 28.5944 69.2744 27.9037C70.1037 27.213 70.7645 26.3421 71.2062 25.3574C71.6479 24.3726 71.859 23.3 71.8234 22.2213C71.7877 21.1426 71.5062 20.0863 71.0004 19.1328C67.8965 13.3351 63.2667 8.4963 57.6115 5.13966C51.9564 1.78303 45.4912 0.0363134 38.9151 0.0884126C32.339 0.140512 25.9023 1.98944 20.3011 5.43526C14.6998 8.88107 10.1472 13.7926 7.13556 19.6388C4.1239 25.4849 2.76783 32.0432 3.21397 38.6043C3.66012 45.1655 5.89152 51.4798 9.66685 56.8644C13.4422 62.2491 18.6178 66.4991 24.6339 69.155C30.6501 71.8108 37.2778 72.7714 43.8004 71.9328C44.1237 71.8851 44.4338 71.7719 44.7117 71.6002C44.9897 71.4284 45.2297 71.2017 45.4169 70.9339C45.6042 70.6661 45.7348 70.363 45.8007 70.0429C45.8667 69.7229 45.8666 69.3928 45.8004 69.0728C45.73 68.7361 45.5908 68.4176 45.3916 68.1371C45.1924 67.8566 44.9374 67.6203 44.6427 67.4429C44.3479 67.2655 44.0198 67.1508 43.6787 67.1061C43.3376 67.0613 42.991 67.0875 42.6604 67.1828Z" fill="url(#paint1_linear)"/>
<path style="mix-blend-mode:multiply" opacity="0.6" d="M42.6604 67.1828C35.7204 69.1828 28.7704 67.1828 22.1704 62.9328C10.5804 55.4328 8.05044 40.9328 14.5104 28.9328C21.3204 16.3428 36.5104 12.8228 48.7404 20.1928C51.2215 21.6761 53.4329 23.5696 55.2804 25.7928C56.554 27.3565 58.2439 28.528 60.1549 29.1721C62.0659 29.8162 64.1202 29.9066 66.0804 29.4328L66.4204 29.3428C67.4689 29.0866 68.445 28.5944 69.2744 27.9037C70.1037 27.213 70.7645 26.3421 71.2062 25.3574C71.6479 24.3726 71.859 23.3 71.8234 22.2213C71.7877 21.1426 71.5062 20.0863 71.0004 19.1328C67.8965 13.3351 63.2667 8.4963 57.6115 5.13966C51.9564 1.78303 45.4912 0.0363134 38.9151 0.0884126C32.339 0.140512 25.9023 1.98944 20.3011 5.43526C14.6998 8.88107 10.1472 13.7926 7.13556 19.6388C4.1239 25.4849 2.76783 32.0432 3.21397 38.6043C3.66012 45.1655 5.89152 51.4798 9.66685 56.8644C13.4422 62.2491 18.6178 66.4991 24.6339 69.155C30.6501 71.8108 37.2778 72.7714 43.8004 71.9328C44.1237 71.8851 44.4338 71.7719 44.7117 71.6002C44.9897 71.4284 45.2297 71.2017 45.4169 70.9339C45.6042 70.6661 45.7348 70.363 45.8007 70.0429C45.8667 69.7229 45.8666 69.3928 45.8004 69.0728C45.73 68.7361 45.5908 68.4176 45.3916 68.1371C45.1924 67.8566 44.9374 67.6203 44.6427 67.4429C44.3479 67.2655 44.0198 67.1508 43.6787 67.1061C43.3376 67.0613 42.991 67.0875 42.6604 67.1828Z" fill="url(#paint2_linear)"/>
<path d="M13.2195 29.1328C16.7677 23.2626 22.4917 19.0323 29.1448 17.3634C35.7978 15.6946 42.8408 16.7223 48.7395 20.2228C51.2206 21.7061 53.432 23.5996 55.2795 25.8228C56.5531 27.3865 58.2429 28.558 60.154 29.2021C62.065 29.8462 64.1193 29.9366 66.0795 29.4628L66.4195 29.3728C67.4722 29.1178 68.4524 28.6251 69.285 27.9324C70.1176 27.2397 70.7804 26.3655 71.2226 25.3768C71.6648 24.3881 71.8746 23.3113 71.836 22.2289C71.7973 21.1465 71.5112 20.0874 70.9995 19.1328C68.055 13.6343 63.7349 8.99324 58.4612 5.66287C53.1874 2.3325 47.1401 0.426598 40.9098 0.131255C34.6795 -0.164088 28.479 1.16122 22.9139 3.97778C17.3487 6.79435 12.609 11.0059 9.15753 16.2012C5.70607 21.3966 3.66081 27.3982 3.22145 33.62C2.78208 39.8418 3.96363 46.0712 6.65072 51.7001C9.33781 57.3289 13.4386 62.1647 18.5527 65.7354C23.6669 69.3061 29.6195 71.4897 35.8295 72.0728C5.48952 66.6128 7.43953 38.6028 13.2195 29.1328Z" fill="url(#paint3_linear)"/>
<path style="mix-blend-mode:multiply" opacity="0.6" d="M13.2195 29.1328C16.7677 23.2626 22.4917 19.0323 29.1448 17.3634C35.7978 15.6946 42.8408 16.7223 48.7395 20.2228C51.2206 21.7061 53.432 23.5996 55.2795 25.8228C56.5531 27.3865 58.2429 28.558 60.154 29.2021C62.065 29.8462 64.1193 29.9366 66.0795 29.4628L66.4195 29.3728C67.4722 29.1178 68.4524 28.6251 69.285 27.9324C70.1176 27.2397 70.7804 26.3655 71.2226 25.3768C71.6648 24.3881 71.8746 23.3113 71.836 22.2289C71.7973 21.1465 71.5112 20.0874 70.9995 19.1328C68.055 13.6343 63.7349 8.99324 58.4612 5.66287C53.1874 2.3325 47.1401 0.426598 40.9098 0.131255C34.6795 -0.164088 28.479 1.16122 22.9139 3.97778C17.3487 6.79435 12.609 11.0059 9.15753 16.2012C5.70607 21.3966 3.66081 27.3982 3.22145 33.62C2.78208 39.8418 3.96363 46.0712 6.65072 51.7001C9.33781 57.3289 13.4386 62.1647 18.5527 65.7354C23.6669 69.3061 29.6195 71.4897 35.8295 72.0728C5.48952 66.6128 7.43953 38.6028 13.2195 29.1328Z" fill="url(#paint4_linear)"/>
<path d="M30.1201 11.5828C45.1201 11.0928 52.2401 19.7328 55.9301 25.3928C56.9652 27.0666 58.5091 28.3649 60.3357 29.0973C62.1623 29.8297 64.1754 29.9578 66.0801 29.4628L66.4201 29.3728C67.4728 29.1179 68.453 28.6251 69.2856 27.9324C70.1182 27.2397 70.781 26.3655 71.2232 25.3768C71.6654 24.3882 71.8752 23.3113 71.8366 22.2289C71.7979 21.1466 71.5118 20.0874 71.0001 19.1328C67.1659 11.9236 60.9991 6.22861 53.5081 2.97917C46.0171 -0.270274 37.6452 -0.881877 29.7615 1.24437C21.8778 3.37062 14.9487 8.10889 10.1075 14.6843C5.2663 21.2598 2.79936 29.2833 3.11013 37.4428C2.82013 22.5328 15.0901 12.0728 30.1201 11.5828Z" fill="url(#paint5_linear)"/>
<path d="M66.4196 28.0428L66.0796 28.1228C64.175 28.6178 62.1618 28.4897 60.3352 27.7573C58.5086 27.0249 56.9647 25.7266 55.9296 24.0528C52.2396 18.4028 45.1396 9.76281 30.1196 10.2428C15.0996 10.7228 2.81964 21.2428 3.11964 36.1028C3.11964 35.8928 3.11964 35.6728 3.11964 35.4628C3.11964 36.1228 3.11964 36.7828 3.11964 37.4628C2.82964 22.5528 15.1196 12.0928 30.1196 11.6028C45.1196 11.1128 52.2396 19.7328 55.9296 25.3928C56.9647 27.0666 58.5086 28.3649 60.3352 29.0973C62.1618 29.8297 64.175 29.9578 66.0796 29.4628L66.4196 29.3728C68.0659 28.9616 69.5101 27.9736 70.49 26.5882C71.4698 25.2029 71.9203 23.512 71.7596 21.8228C71.6233 23.2849 71.0363 24.6686 70.0797 25.7828C69.1232 26.897 67.8443 27.6867 66.4196 28.0428Z" fill="url(#paint6_linear)"/>
<path d="M53.0696 67.4328C53.0696 67.949 52.9165 68.4536 52.6297 68.8829C52.343 69.3121 51.9353 69.6466 51.4584 69.8441C50.9815 70.0417 50.4567 70.0934 49.9504 69.9927C49.4441 69.892 48.9791 69.6434 48.6141 69.2784C48.249 68.9133 48.0005 68.4483 47.8998 67.942C47.7991 67.4357 47.8507 66.9109 48.0483 66.434C48.2458 65.9571 48.5804 65.5495 49.0096 65.2627C49.4388 64.9759 49.9434 64.8228 50.4596 64.8228C51.1518 64.8228 51.8157 65.0978 52.3052 65.5873C52.7946 66.0767 53.0696 66.7406 53.0696 67.4328Z" fill="url(#paint7_linear)"/>
<path d="M42.6598 67.1828C35.7198 69.1828 28.7698 67.1828 22.1698 62.9328C18.753 60.7715 15.9376 57.7821 13.9848 54.242C12.0321 50.7019 11.0053 46.7258 10.9998 42.6828C10.8596 46.8741 11.8165 51.0293 13.7757 54.7371C15.7348 58.445 18.6283 61.5769 22.1698 63.8228C28.7698 68.1328 35.7198 70.1328 42.6598 68.0728C42.9935 67.9727 43.3445 67.9432 43.6903 67.9861C44.0361 68.0291 44.3692 68.1436 44.6683 68.3223C44.9675 68.501 45.2261 68.7401 45.4278 69.0243C45.6295 69.3084 45.7698 69.6315 45.8398 69.9728C45.8996 69.6691 45.8996 69.3566 45.8398 69.0528C45.7677 68.7134 45.6257 68.3927 45.4228 68.1112C45.22 67.8296 44.9608 67.5934 44.6616 67.4175C44.3625 67.2416 44.03 67.1299 43.6854 67.0895C43.3408 67.0491 42.9915 67.0809 42.6598 67.1828Z" fill="url(#paint8_linear)"/>
<path d="M58.4802 64.1928C58.4802 64.571 58.3679 64.9407 58.1576 65.255C57.9472 65.5693 57.6483 65.8141 57.2988 65.9584C56.9492 66.1026 56.5646 66.1399 56.1938 66.0654C55.8231 65.9909 55.4828 65.8079 55.216 65.5398C54.9493 65.2717 54.7682 64.9304 54.6956 64.5593C54.6231 64.1881 54.6623 63.8038 54.8084 63.455C54.9545 63.1061 55.2009 62.8085 55.5163 62.5999C55.8317 62.3912 56.202 62.2809 56.5802 62.2828C56.8305 62.2828 57.0784 62.3323 57.3096 62.4284C57.5407 62.5245 57.7506 62.6654 57.9272 62.8429C58.1038 63.0204 58.2435 63.231 58.3384 63.4627C58.4333 63.6943 58.4815 63.9425 58.4802 64.1928Z" fill="url(#paint9_linear)"/>
<path d="M60.8696 62.2828C61.549 62.2828 62.0996 61.7321 62.0996 61.0528C62.0996 60.3735 61.549 59.8228 60.8696 59.8228C60.1903 59.8228 59.6396 60.3735 59.6396 61.0528C59.6396 61.7321 60.1903 62.2828 60.8696 62.2828Z" fill="url(#paint10_linear)"/>
<path d="M13.2195 29.1328C15.5019 25.3761 18.6934 22.2545 22.4998 20.0559C26.3062 17.8574 30.6049 16.6526 34.9995 16.5528C30.4278 16.4707 25.9145 17.5892 21.9102 19.7966C17.9059 22.0041 14.5507 25.2233 12.1795 29.1328C6.52953 38.3728 4.53953 65.2828 32.6795 71.6428C33.6795 71.8328 34.7795 71.9828 35.8295 72.0728C5.48953 66.6128 7.43953 38.6028 13.2195 29.1328Z" fill="url(#paint11_linear)"/>
<defs>
<radialGradient id="paint0_radial" cx="0" cy="0" r="1" gradientUnits="userSpaceOnUse" gradientTransform="translate(39.15 86.9725) scale(37.09 2.5963)">
<stop offset="0.11" stop-color="#666666"/>
<stop offset="0.29" stop-color="#7C7C7C" stop-opacity="0.85"/>
<stop offset="0.63" stop-color="#B7B7B7" stop-opacity="0.47"/>
<stop offset="1" stop-color="white" stop-opacity="0"/>
</radialGradient>
<linearGradient id="paint1_linear" x1="3.08044" y1="36.1828" x2="71.8004" y2="36.1828" gradientUnits="userSpaceOnUse">
<stop stop-color="#FA71CD"/>
<stop offset="1" stop-color="#C471F5"/>
</linearGradient>
<linearGradient id="paint2_linear" x1="2570.31" y1="1834.61" x2="2623.34" y2="4598.92" gradientUnits="userSpaceOnUse">
<stop offset="0.11" stop-color="#666666"/>
<stop offset="0.29" stop-color="#7C7C7C" stop-opacity="0.85"/>
<stop offset="0.63" stop-color="#B7B7B7" stop-opacity="0.47"/>
<stop offset="1" stop-color="white" stop-opacity="0"/>
</linearGradient>
<linearGradient id="paint3_linear" x1="40.7095" y1="12.5128" x2="31.2295" y2="56.7628" gradientUnits="userSpaceOnUse">
<stop stop-color="#764BA2"/>
<stop offset="1" stop-color="#667EEA"/>
</linearGradient>
<linearGradient id="paint4_linear" x1="3846.69" y1="1871.62" x2="1339.43" y2="2942.76" gradientUnits="userSpaceOnUse">
<stop offset="0.11" stop-color="#666666"/>
<stop offset="0.29" stop-color="#7C7C7C" stop-opacity="0.85"/>
<stop offset="0.63" stop-color="#B7B7B7" stop-opacity="0.47"/>
<stop offset="1" stop-color="white" stop-opacity="0"/>
</linearGradient>
<linearGradient id="paint5_linear" x1="3.08013" y1="18.7828" x2="71.7901" y2="18.7828" gradientUnits="userSpaceOnUse">
<stop stop-color="#4FACFE"/>
<stop offset="1" stop-color="#00F2FE"/>
</linearGradient>
<linearGradient id="paint6_linear" x1="3.08964" y1="23.8328" x2="71.7896" y2="23.8328" gradientUnits="userSpaceOnUse">
<stop stop-color="#00EDFF"/>
<stop offset="1" stop-color="#00F2FE" stop-opacity="0"/>
</linearGradient>
<linearGradient id="paint7_linear" x1="314.174" y1="402.87" x2="307.284" y2="434.19" gradientUnits="userSpaceOnUse">
<stop stop-color="#FA71CD"/>
<stop offset="1" stop-color="#C471F5"/>
</linearGradient>
<linearGradient id="paint8_linear" x1="22.7598" y1="55.6928" x2="44.1198" y2="58.9128" gradientUnits="userSpaceOnUse">
<stop stop-color="#FF99F5"/>
<stop offset="0.99" stop-color="#C471F5" stop-opacity="0"/>
</linearGradient>
<linearGradient id="paint9_linear" x1="271.752" y1="299.39" x2="269.728" y2="315.014" gradientUnits="userSpaceOnUse">
<stop stop-color="#FA71CD"/>
<stop offset="1" stop-color="#C471F5"/>
</linearGradient>
<linearGradient id="paint10_linear" x1="209.896" y1="207.005" x2="208.593" y2="213.647" gradientUnits="userSpaceOnUse">
<stop stop-color="#FA71CD"/>
<stop offset="1" stop-color="#C471F5"/>
</linearGradient>
<linearGradient id="paint11_linear" x1="20.7995" y1="62.1728" x2="30.3795" y2="20.9628" gradientUnits="userSpaceOnUse">
<stop stop-color="#90A8FC"/>
<stop offset="1" stop-color="#667EEA" stop-opacity="0"/>
</linearGradient>
</defs>
</svg>
